<svg width="12" height="11" viewBox="0 0 12 11" fill="none" xmlns="http://www.w3.org/2000/svg">
<g clip-path="url(#clip0_63_617)">
<path d="M10.2703 6.36843H1.00709C0.777242 6.36692 0.557236 6.27494 0.394703 6.1124C0.23217 5.94987 0.140189 5.72986 0.138672 5.50001C0.140189 5.27016 0.23217 5.05016 0.394703 4.88762C0.557236 4.72509 0.777242 4.63311 1.00709 4.63159H10.2703C10.5001 4.63311 10.7201 4.72509 10.8826 4.88762C11.0452 5.05016 11.1372 5.27016 11.1387 5.50001C11.1372 5.72986 11.0452 5.94987 10.8826 6.1124C10.7201 6.27494 10.5001 6.36692 10.2703 6.36843Z" fill="white"/>
<path d="M5.63795 11C5.4081 10.9985 5.1881 10.9065 5.02556 10.744C4.86303 10.5814 4.77105 10.3614 4.76953 10.1316V0.868421C4.77105 0.63857 4.86303 0.418564 5.02556 0.256031C5.1881 0.0934985 5.4081 0.00151722 5.63795 0C5.8678 0.00151722 6.08781 0.0934985 6.25034 0.256031C6.41287 0.418564 6.50486 0.63857 6.50637 0.868421V10.1316C6.50486 10.3614 6.41287 10.5814 6.25034 10.744C6.08781 10.9065 5.8678 10.9985 5.63795 11Z" fill="white"/>
</g>
<defs>
<clipPath id="clip0_63_617">
<rect width="11" height="11" fill="white" transform="translate(0.138672)"/>
</clipPath>
</defs>
</svg>
