<svg width="205" height="71" viewBox="0 0 205 71" fill="none" xmlns="http://www.w3.org/2000/svg">
<rect y="0.520996" width="205" height="70" rx="10" fill="black"/>
<g clip-path="url(#clip0_1_486)">
<path d="M22.2055 32.3434C20.1765 35.8643 21.4664 41.2075 23.7101 44.4473C24.8301 46.067 25.964 47.5209 27.5171 47.5209C27.5463 47.5209 27.5757 47.5204 27.6058 47.5192C28.3354 47.4901 28.8627 47.2654 29.3726 47.0483C29.9449 46.8044 30.5369 46.5522 31.4654 46.5522C32.3488 46.5522 32.9125 46.7962 33.4577 47.0321C33.995 47.2645 34.5484 47.505 35.3661 47.4897C37.1155 47.4571 38.1896 45.8882 39.1372 44.5042C40.1261 43.059 40.6222 41.6559 40.7895 41.1198L40.7963 41.0984C40.8282 41.0031 40.7832 40.8991 40.6918 40.8572C40.6893 40.856 40.68 40.8521 40.6774 40.851C40.3694 40.7251 37.667 39.5262 37.6386 36.2588C37.6123 33.6041 39.6659 32.1984 40.0777 31.9436L40.0969 31.9316C40.1415 31.9029 40.1726 31.8573 40.1832 31.8052C40.1937 31.7532 40.1827 31.6991 40.1528 31.6553C38.7353 29.581 36.5627 29.2683 35.688 29.2307C35.5611 29.218 35.4301 29.2117 35.2985 29.2117C34.2711 29.2117 33.287 29.5997 32.4963 29.9114C31.9505 30.1267 31.4791 30.3125 31.154 30.3125C30.7886 30.3125 30.3145 30.1244 29.7655 29.9066C29.0314 29.6152 28.1992 29.285 27.3183 29.285C27.2973 29.285 27.2766 29.2852 27.2562 29.2856C25.208 29.3158 23.2725 30.4876 22.2055 32.3434Z" fill="white"/>
<path d="M35.69 23.5211C34.4496 23.5717 32.9617 24.3352 32.0724 25.3769C31.3166 26.2524 30.5782 27.7123 30.7728 29.1837C30.785 29.2758 30.8599 29.3469 30.9525 29.354C31.0362 29.3605 31.1217 29.3638 31.2068 29.3639C32.4196 29.3639 33.728 28.693 34.6215 27.6126C35.5619 26.4717 36.0374 25.0077 35.8936 23.6962C35.8822 23.5935 35.7918 23.5171 35.69 23.5211Z" fill="white"/>
</g>
<path d="M58.768 29.647C57.6853 29.647 56.78 29.4463 56.052 29.045C55.324 28.6437 54.778 28.065 54.414 27.309C54.05 26.553 53.868 25.6477 53.868 24.593C53.868 23.5477 54.0593 22.647 54.442 21.891C54.8247 21.135 55.3753 20.5517 56.094 20.141C56.8127 19.7303 57.6807 19.525 58.698 19.525C59.4167 19.525 60.0373 19.6323 60.56 19.847C61.092 20.0523 61.568 20.3603 61.988 20.771L61.554 21.681C61.246 21.4103 60.9473 21.1957 60.658 21.037C60.378 20.8783 60.084 20.7617 59.776 20.687C59.468 20.603 59.1087 20.561 58.698 20.561C57.5313 20.561 56.6353 20.9157 56.01 21.625C55.394 22.325 55.086 23.319 55.086 24.607C55.086 25.9043 55.3847 26.8983 55.982 27.589C56.5887 28.2797 57.5267 28.625 58.796 28.625C59.2627 28.625 59.706 28.583 60.126 28.499C60.5553 28.4057 60.9707 28.275 61.372 28.107L61.12 28.737V25.265H58.6V24.355H62.114V28.933C61.7127 29.1477 61.204 29.3203 60.588 29.451C59.9813 29.5817 59.3747 29.647 58.768 29.647ZM67.4682 29.647C66.3669 29.647 65.4989 29.3297 64.8642 28.695C64.2296 28.051 63.9122 27.1597 63.9122 26.021C63.9122 25.2837 64.0522 24.6443 64.3322 24.103C64.6122 23.5523 65.0042 23.1277 65.5082 22.829C66.0122 22.521 66.5909 22.367 67.2442 22.367C67.8882 22.367 68.4296 22.5023 68.8682 22.773C69.3069 23.0437 69.6429 23.431 69.8762 23.935C70.1096 24.4297 70.2262 25.0177 70.2262 25.699V26.119H64.7802V25.405H69.4842L69.2462 25.587C69.2462 24.8403 69.0782 24.257 68.7422 23.837C68.4062 23.417 67.9069 23.207 67.2442 23.207C66.5442 23.207 65.9982 23.4543 65.6062 23.949C65.2142 24.4343 65.0182 25.0923 65.0182 25.923V26.049C65.0182 26.9263 65.2329 27.5937 65.6622 28.051C66.1009 28.499 66.7122 28.723 67.4962 28.723C67.9162 28.723 68.3082 28.6623 68.6722 28.541C69.0456 28.4103 69.4002 28.2003 69.7362 27.911L70.1282 28.709C69.8202 29.0077 69.4282 29.241 68.9522 29.409C68.4856 29.5677 67.9909 29.647 67.4682 29.647ZM74.4535 29.647C73.7628 29.647 73.2355 29.451 72.8715 29.059C72.5075 28.6577 72.3255 28.0557 72.3255 27.253V23.375H70.9535V22.493H72.3255V20.575L73.4595 20.253V22.493H75.4755V23.375H73.4595V27.127C73.4595 27.687 73.5528 28.0883 73.7395 28.331C73.9355 28.5643 74.2248 28.681 74.6075 28.681C74.7848 28.681 74.9435 28.667 75.0835 28.639C75.2235 28.6017 75.3495 28.5597 75.4615 28.513V29.465C75.3308 29.521 75.1721 29.563 74.9855 29.591C74.8081 29.6283 74.6308 29.647 74.4535 29.647ZM80.5064 29.521V22.493H81.6404V29.521H80.5064ZM80.3664 20.897V19.623H81.7664V20.897H80.3664ZM83.8423 29.521V24.117C83.8423 23.8557 83.8283 23.5897 83.8003 23.319C83.7817 23.039 83.7583 22.7637 83.7303 22.493H84.8223L84.9623 24.033H84.7943C84.9997 23.4917 85.3263 23.081 85.7743 22.801C86.2317 22.5117 86.759 22.367 87.3563 22.367C88.187 22.367 88.8123 22.591 89.2323 23.039C89.6617 23.4777 89.8763 24.173 89.8763 25.125V29.521H88.7423V25.195C88.7423 24.5323 88.607 24.0517 88.3363 23.753C88.075 23.445 87.6643 23.291 87.1043 23.291C86.451 23.291 85.933 23.4917 85.5503 23.893C85.1677 24.2943 84.9763 24.831 84.9763 25.503V29.521H83.8423ZM52.813 50.521L58.321 38.536H60.514L66.09 50.521H63.404L61.959 47.189L62.996 47.92H55.873L56.927 47.189L55.482 50.521H52.813ZM59.409 41.324L57.216 46.526L56.757 45.88H62.112L61.721 46.526L59.477 41.324H59.409ZM66.9534 54.193V44.146C66.9534 43.7833 66.9421 43.415 66.9194 43.041C66.8967 42.6557 66.8627 42.276 66.8174 41.902H69.2824L69.4864 43.585H69.2994C69.4694 43.0183 69.8264 42.5707 70.3704 42.242C70.9144 41.902 71.5377 41.732 72.2404 41.732C72.9884 41.732 73.6457 41.9133 74.2124 42.276C74.7791 42.6273 75.2211 43.1373 75.5384 43.806C75.8671 44.4747 76.0314 45.2737 76.0314 46.203C76.0314 47.1437 75.8671 47.9483 75.5384 48.617C75.2211 49.2857 74.7791 49.8013 74.2124 50.164C73.6457 50.5267 72.9884 50.708 72.2404 50.708C71.5491 50.708 70.9314 50.5437 70.3874 50.215C69.8547 49.8863 69.4977 49.45 69.3164 48.906H69.5204V54.193H66.9534ZM71.4584 48.77C72.0591 48.77 72.5407 48.5603 72.9034 48.141C73.2661 47.7217 73.4474 47.0757 73.4474 46.203C73.4474 45.3303 73.2661 44.69 72.9034 44.282C72.5407 43.874 72.0591 43.67 71.4584 43.67C70.8691 43.67 70.3874 43.874 70.0134 44.282C69.6507 44.69 69.4694 45.3303 69.4694 46.203C69.4694 47.0757 69.6507 47.7217 70.0134 48.141C70.3874 48.5603 70.8691 48.77 71.4584 48.77ZM77.6946 54.193V44.146C77.6946 43.7833 77.6833 43.415 77.6606 43.041C77.638 42.6557 77.604 42.276 77.5586 41.902H80.0236L80.2276 43.585H80.0406C80.2106 43.0183 80.5676 42.5707 81.1116 42.242C81.6556 41.902 82.279 41.732 82.9816 41.732C83.7296 41.732 84.387 41.9133 84.9536 42.276C85.5203 42.6273 85.9623 43.1373 86.2796 43.806C86.6083 44.4747 86.7726 45.2737 86.7726 46.203C86.7726 47.1437 86.6083 47.9483 86.2796 48.617C85.9623 49.2857 85.5203 49.8013 84.9536 50.164C84.387 50.5267 83.7296 50.708 82.9816 50.708C82.2903 50.708 81.6726 50.5437 81.1286 50.215C80.596 49.8863 80.239 49.45 80.0576 48.906H80.2616V54.193H77.6946ZM82.1996 48.77C82.8003 48.77 83.282 48.5603 83.6446 48.141C84.0073 47.7217 84.1886 47.0757 84.1886 46.203C84.1886 45.3303 84.0073 44.69 83.6446 44.282C83.282 43.874 82.8003 43.67 82.1996 43.67C81.6103 43.67 81.1286 43.874 80.7546 44.282C80.392 44.69 80.2106 45.3303 80.2106 46.203C80.2106 47.0757 80.392 47.7217 80.7546 48.141C81.1286 48.5603 81.6103 48.77 82.1996 48.77ZM97.7387 50.708C96.7754 50.708 95.8744 50.589 95.0357 50.351C94.197 50.113 93.483 49.7843 92.8937 49.365L93.6757 47.291C94.061 47.5517 94.469 47.7727 94.8997 47.954C95.3304 48.1353 95.7837 48.277 96.2597 48.379C96.7357 48.4697 97.2344 48.515 97.7557 48.515C98.5717 48.515 99.1497 48.3903 99.4897 48.141C99.841 47.8917 100.017 47.5743 100.017 47.189C100.017 46.8377 99.8977 46.5713 99.6597 46.39C99.433 46.1973 99.0137 46.033 98.4017 45.897L96.3957 45.489C95.2964 45.2623 94.4747 44.877 93.9307 44.333C93.3867 43.789 93.1147 43.0637 93.1147 42.157C93.1147 41.3863 93.3187 40.7177 93.7267 40.151C94.1347 39.5843 94.707 39.1423 95.4437 38.825C96.1917 38.5077 97.0644 38.349 98.0617 38.349C98.9117 38.349 99.705 38.468 100.442 38.706C101.178 38.944 101.785 39.284 102.261 39.726L101.479 41.664C101.014 41.29 100.493 41.0123 99.9147 40.831C99.348 40.6383 98.7134 40.542 98.0107 40.542C97.274 40.542 96.7074 40.6723 96.3107 40.933C95.9254 41.1937 95.7327 41.5507 95.7327 42.004C95.7327 42.344 95.8517 42.6217 96.0897 42.837C96.3277 43.041 96.747 43.2053 97.3477 43.33L99.3197 43.721C100.442 43.9477 101.275 44.3273 101.819 44.86C102.363 45.3927 102.635 46.101 102.635 46.985C102.635 47.733 102.431 48.3847 102.023 48.94C101.626 49.4953 101.059 49.9317 100.323 50.249C99.5974 50.555 98.736 50.708 97.7387 50.708ZM108.336 50.708C107.214 50.708 106.37 50.4303 105.803 49.875C105.236 49.3083 104.953 48.464 104.953 47.342V43.823H103.321V41.902H104.953V39.794L107.52 39.165V41.902H109.73V43.823H107.52V47.206C107.52 47.75 107.633 48.124 107.86 48.328C108.087 48.532 108.376 48.634 108.727 48.634C108.942 48.634 109.118 48.6227 109.254 48.6C109.401 48.566 109.554 48.5207 109.713 48.464V50.453C109.498 50.5437 109.271 50.606 109.033 50.64C108.795 50.6853 108.563 50.708 108.336 50.708ZM115.044 50.708C114.126 50.708 113.327 50.5267 112.647 50.164C111.978 49.79 111.457 49.2687 111.083 48.6C110.72 47.9313 110.539 47.1323 110.539 46.203C110.539 45.285 110.72 44.4917 111.083 43.823C111.457 43.1543 111.978 42.6387 112.647 42.276C113.327 41.9133 114.126 41.732 115.044 41.732C115.962 41.732 116.761 41.9133 117.441 42.276C118.121 42.6387 118.642 43.1543 119.005 43.823C119.379 44.4917 119.566 45.285 119.566 46.203C119.566 47.1323 119.379 47.9313 119.005 48.6C118.642 49.2687 118.121 49.79 117.441 50.164C116.761 50.5267 115.962 50.708 115.044 50.708ZM115.044 48.77C115.633 48.77 116.098 48.5603 116.438 48.141C116.789 47.7217 116.965 47.0757 116.965 46.203C116.965 45.3303 116.789 44.69 116.438 44.282C116.098 43.874 115.633 43.67 115.044 43.67C114.455 43.67 113.984 43.874 113.633 44.282C113.293 44.69 113.123 45.3303 113.123 46.203C113.123 47.0757 113.293 47.7217 113.633 48.141C113.984 48.5603 114.455 48.77 115.044 48.77ZM121.207 50.521V44.18C121.207 43.806 121.196 43.4263 121.173 43.041C121.162 42.6557 121.133 42.276 121.088 41.902H123.553L123.842 44.418H123.451C123.564 43.806 123.746 43.3017 123.995 42.905C124.256 42.5083 124.573 42.2137 124.947 42.021C125.332 41.8283 125.769 41.732 126.256 41.732C126.471 41.732 126.641 41.7433 126.766 41.766C126.891 41.7773 127.015 41.8057 127.14 41.851L127.123 44.112C126.885 44.01 126.681 43.9477 126.511 43.925C126.352 43.891 126.148 43.874 125.899 43.874C125.423 43.874 125.026 43.9647 124.709 44.146C124.403 44.3273 124.171 44.5937 124.012 44.945C123.865 45.2963 123.791 45.7213 123.791 46.22V50.521H121.207ZM132.399 50.708C130.903 50.708 129.735 50.3057 128.897 49.501C128.058 48.6963 127.639 47.6027 127.639 46.22C127.639 45.3247 127.814 44.5427 128.166 43.874C128.528 43.2053 129.027 42.684 129.662 42.31C130.308 41.9247 131.061 41.732 131.923 41.732C132.773 41.732 133.481 41.9133 134.048 42.276C134.626 42.6387 135.056 43.1487 135.34 43.806C135.634 44.452 135.782 45.2057 135.782 46.067V46.662H129.747V45.387H133.912L133.623 45.625C133.623 44.911 133.475 44.3727 133.181 44.01C132.897 43.636 132.484 43.449 131.94 43.449C131.339 43.449 130.874 43.67 130.546 44.112C130.228 44.554 130.07 45.1887 130.07 46.016V46.288C130.07 47.1267 130.274 47.75 130.682 48.158C131.101 48.566 131.702 48.77 132.484 48.77C132.948 48.77 133.385 48.7133 133.793 48.6C134.212 48.4753 134.609 48.2827 134.983 48.022L135.697 49.722C135.266 50.0393 134.767 50.283 134.201 50.453C133.645 50.623 133.045 50.708 132.399 50.708Z" fill="white"/>
<defs>
<clipPath id="clip0_1_486">
<rect width="24" height="24" fill="white" transform="translate(19 23.521)"/>
</clipPath>
</defs>
</svg>
