<svg width="8" height="12" viewBox="0 0 8 12" fill="none" xmlns="http://www.w3.org/2000/svg">
<path d="M0.809463 11.8193C0.702918 11.7158 0.637921 11.5769 0.62673 11.4288C0.615539 11.2807 0.658928 11.1336 0.748713 11.0153L0.809463 10.9463L5.85471 6L0.809463 1.05375C0.702918 0.950267 0.637921 0.811373 0.62673 0.663265C0.615539 0.515157 0.658928 0.368073 0.748713 0.249753L0.809463 0.180753C0.917215 0.0759206 1.05848 0.0124355 1.20841 0.00146143C1.35834 -0.0095126 1.50735 0.0327272 1.62921 0.120753L1.69971 0.180753L7.19046 5.5635C7.29701 5.66699 7.36201 5.80588 7.3732 5.95399C7.38439 6.1021 7.341 6.24918 7.25121 6.3675L7.19046 6.4365L1.69971 11.8193C1.58046 11.935 1.4208 11.9998 1.25459 11.9998C1.08838 11.9998 0.928712 11.935 0.809463 11.8193Z" fill="white"/>
</svg>
