<svg width="26" height="26" viewBox="0 0 26 26" fill="none" xmlns="http://www.w3.org/2000/svg">
<path d="M13 0.5C10.5277 0.5 8.11099 1.23311 6.05538 2.60663C3.99976 3.98015 2.39761 5.93238 1.45151 8.21646C0.505416 10.5005 0.257874 13.0139 0.74019 15.4386C1.2225 17.8634 2.41301 20.0907 4.16117 21.8388C5.90933 23.587 8.13661 24.7775 10.5614 25.2598C12.9861 25.7421 15.4995 25.4946 17.7836 24.5485C20.0676 23.6024 22.0199 22.0002 23.3934 19.9446C24.7669 17.889 25.5 15.4723 25.5 13C25.4947 9.68642 24.1761 6.51007 21.833 4.16701C19.4899 1.82395 16.3136 0.505289 13 0.5ZM18.975 10.125L11.8875 17.2125C11.8006 17.2997 11.6974 17.3689 11.5837 17.4162C11.47 17.4634 11.3481 17.4877 11.225 17.4877C11.1019 17.4877 10.98 17.4634 10.8663 17.4162C10.7526 17.3689 10.6494 17.2997 10.5625 17.2125L7.02501 13.675C6.9329 13.5892 6.85902 13.4857 6.80778 13.3707C6.75654 13.2557 6.72899 13.1315 6.72677 13.0057C6.72455 12.8798 6.7477 12.7547 6.79485 12.638C6.842 12.5213 6.91218 12.4152 7.00121 12.3262C7.09023 12.2372 7.19627 12.167 7.31301 12.1198C7.42974 12.0727 7.55478 12.0495 7.68066 12.0518C7.80654 12.054 7.93068 12.0815 8.04568 12.1328C8.16068 12.184 8.26418 12.2579 8.35001 12.35L11.225 15.225L17.65 8.8C17.8277 8.6344 18.0628 8.54425 18.3057 8.54853C18.5485 8.55282 18.7803 8.65121 18.952 8.82297C19.1238 8.99474 19.2222 9.22647 19.2265 9.46935C19.2308 9.71222 19.1406 9.94728 18.975 10.125Z" fill="#1DE461"/>
</svg>
