<svg width="19" height="21" viewBox="0 0 19 21" fill="none" xmlns="http://www.w3.org/2000/svg">
<path d="M5.65169 20H5.64069C4.95664 20.03 4.27349 19.9233 3.63115 19.6862C2.98882 19.449 2.4002 19.0863 1.89969 18.619C1.43066 18.1198 1.06617 17.5319 0.827636 16.8898C0.589102 16.2477 0.48134 15.5644 0.510686 14.88L0.499686 6.55304C0.451645 5.27462 0.886867 4.02501 1.71869 3.05304C2.5819 2.14737 3.75667 1.60305 5.00569 1.53004V0.78004C5.004 0.6779 5.02257 0.576438 5.06033 0.481519C5.09809 0.3866 5.15429 0.300107 5.22569 0.22704C5.33382 0.121893 5.47059 0.0510095 5.61885 0.0232766C5.7671 -0.00445634 5.92025 0.0121959 6.05908 0.0711454C6.19791 0.130095 6.31624 0.228718 6.39925 0.354649C6.48226 0.48058 6.52624 0.628214 6.52569 0.77904V1.47904L12.3907 1.47104V0.77004C12.3887 0.668184 12.4069 0.566947 12.4444 0.472193C12.4818 0.37744 12.5376 0.291054 12.6087 0.21804C12.7167 0.113014 12.8533 0.04217 13.0014 0.0143726C13.1494 -0.0134247 13.3024 0.00305852 13.4412 0.0617602C13.5799 0.120462 13.6983 0.218775 13.7814 0.3444C13.8646 0.470026 13.9088 0.617384 13.9087 0.76804V1.51804C15.164 1.57569 16.3507 2.10706 17.2297 3.00504C18.0808 3.96222 18.5316 5.20989 18.4887 6.49004L18.4997 14.916C18.4997 18.041 16.5387 19.986 13.3717 19.99L5.65169 20ZM13.5427 14.192C13.3228 14.1983 13.1143 14.2913 12.9628 14.4508C12.8112 14.6102 12.7288 14.8231 12.7337 15.043C12.7378 15.2067 12.7903 15.3655 12.8845 15.4994C12.9787 15.6333 13.1103 15.7364 13.2629 15.7957C13.4156 15.8549 13.5823 15.8678 13.7422 15.8325C13.902 15.7972 14.0479 15.7155 14.1615 15.5975C14.275 15.4796 14.3511 15.3307 14.3802 15.1695C14.4093 15.0084 14.3901 14.8423 14.325 14.6921C14.26 14.5419 14.1519 14.4142 14.0145 14.3252C13.8771 14.2363 13.7164 14.1899 13.5527 14.192H13.5427ZM5.41669 14.192C5.19696 14.2031 4.99007 14.2989 4.83942 14.4593C4.68877 14.6196 4.60608 14.832 4.60869 15.052C4.6146 15.2642 4.70228 15.466 4.85341 15.615C5.00453 15.7641 5.20742 15.849 5.41969 15.852H5.45869C5.56572 15.8475 5.67078 15.8217 5.76777 15.7762C5.86476 15.7307 5.95175 15.6664 6.02369 15.587C6.09771 15.5064 6.15486 15.4118 6.19179 15.3088C6.22871 15.2057 6.24465 15.0963 6.23869 14.987C6.23526 14.7726 6.14728 14.5683 5.99388 14.4184C5.84049 14.2686 5.63411 14.1854 5.41969 14.187L5.41669 14.192ZM9.48469 14.187C9.26513 14.1991 9.05867 14.2953 8.90819 14.4557C8.75772 14.616 8.67481 14.8282 8.67669 15.048C8.68262 15.2608 8.77072 15.4629 8.92249 15.6121C9.07426 15.7612 9.2779 15.8458 9.49069 15.848H9.52669C9.74398 15.8367 9.94792 15.7397 10.0939 15.5783C10.2399 15.417 10.316 15.2044 10.3057 14.987C10.3023 14.7726 10.2143 14.5683 10.0609 14.4184C9.90749 14.2686 9.70111 14.1854 9.48669 14.187H9.48469ZM5.41169 10.594C5.19196 10.6051 4.98507 10.7009 4.83442 10.8613C4.68377 11.0216 4.60108 11.234 4.60369 11.454C4.60911 11.6666 4.69677 11.8687 4.84822 12.0179C4.99967 12.1671 5.20309 12.2518 5.41569 12.254H5.45469C5.56141 12.2494 5.66614 12.2236 5.76279 12.1781C5.85944 12.1326 5.94609 12.0683 6.01769 11.989C6.09144 11.9083 6.14835 11.8136 6.18509 11.7106C6.22184 11.6076 6.23768 11.4983 6.23169 11.389C6.22852 11.1747 6.14076 10.9704 5.98752 10.8205C5.83429 10.6706 5.62802 10.5874 5.41369 10.589L5.41169 10.594ZM9.48069 10.559C9.26078 10.5699 9.05364 10.6655 8.90278 10.8259C8.75192 10.9863 8.66909 11.1989 8.67169 11.419C8.67763 11.6319 8.76586 11.8342 8.91785 11.9834C9.06983 12.1326 9.27373 12.2171 9.48669 12.219H9.52269C9.73961 12.2069 9.94299 12.1096 10.0886 11.9484C10.2343 11.7872 10.3105 11.5751 10.3007 11.358C10.2973 11.1438 10.2094 10.9396 10.0562 10.7898C9.90306 10.64 9.69694 10.5567 9.48269 10.558L9.48069 10.559ZM13.5507 10.565C13.3325 10.5698 13.125 10.6607 12.9736 10.8179C12.8222 10.9751 12.7392 11.1858 12.7427 11.404V11.416C12.7461 11.6308 12.8344 11.8355 12.9882 11.9854C13.142 12.1352 13.3489 12.2182 13.5637 12.216H13.5827C13.7969 12.2059 13.9988 12.1127 14.1454 11.9563C14.2921 11.7998 14.3721 11.5924 14.3685 11.378C14.3649 11.1635 14.2779 10.9589 14.1259 10.8076C13.974 10.6562 13.7691 10.5699 13.5547 10.567L13.5507 10.565ZM5.00769 3.05804C3.02269 3.25804 2.01669 4.43304 2.01969 6.55104V6.86204L16.9677 6.84204V6.49204C16.9277 4.37904 15.8997 3.22004 13.9137 3.04704V3.81704C13.9142 3.96786 13.8701 4.11545 13.7868 4.24123C13.7036 4.367 13.585 4.46533 13.446 4.52382C13.307 4.58231 13.1538 4.59835 13.0057 4.56992C12.8575 4.54148 12.7212 4.46985 12.6137 4.36404C12.4726 4.21794 12.3946 4.02216 12.3967 3.81904V3.01004L6.53169 3.01804V3.82604C6.53172 3.97665 6.48731 4.12392 6.404 4.24939C6.32069 4.37486 6.2022 4.47294 6.06338 4.53135C5.92456 4.58977 5.77159 4.6059 5.62364 4.57774C5.47569 4.54958 5.33934 4.47837 5.23169 4.37304C5.09031 4.2267 5.01234 4.03051 5.01469 3.82704V3.05704L5.00769 3.05804Z" fill="#71859E"/>
</svg>
