<svg width="24" height="24" viewBox="0 0 24 24" fill="none" xmlns="http://www.w3.org/2000/svg">
<path d="M15.12 21.446C10.83 19.655 4.27502 13.231 2.54302 8.97403C1.82402 7.38903 1.81802 6.08203 2.53102 5.10003C2.81502 4.63903 4.43302 2.71303 5.88202 2.77403C6.31563 2.83215 6.71496 3.04101 7.01002 3.36403C7.90767 4.28944 8.66503 5.34125 9.25802 6.48603C9.33275 7.06032 9.18144 7.64118 8.83602 8.10603C8.56902 8.57403 7.85402 9.46003 8.03602 9.97703C9.23622 12.6562 11.4164 14.7745 14.129 15.897C14.635 16.081 15.52 15.367 15.986 15.097C16.4485 14.7498 17.0286 14.5976 17.602 14.673C18.7446 15.2832 19.7928 16.0555 20.714 16.966C21.0342 17.2597 21.2412 17.6564 21.299 18.087C21.353 19.569 19.339 21.261 18.972 21.472C18.4798 21.8244 17.8873 22.0092 17.282 21.999C16.5298 21.9736 15.7921 21.7849 15.12 21.446ZM16.835 9.93103C16.7054 9.25085 16.3747 8.6252 15.8857 8.13496C15.3967 7.64472 14.7719 7.31242 14.092 7.18103C13.868 7.13766 13.6705 7.0071 13.5428 6.81807C13.415 6.62903 13.3677 6.397 13.411 6.17303C13.4544 5.94905 13.5849 5.75147 13.774 5.62376C13.963 5.49605 14.195 5.44866 14.419 5.49203C15.435 5.68862 16.3688 6.18532 17.0996 6.91796C17.8305 7.65061 18.3249 8.58554 18.519 9.60203C18.562 9.82588 18.5149 10.0577 18.388 10.247C18.261 10.4363 18.0644 10.5678 17.841 10.613C17.7862 10.6229 17.7307 10.6279 17.675 10.628C17.476 10.627 17.2835 10.557 17.1303 10.4299C16.9771 10.3028 16.8727 10.1265 16.835 9.93103ZM20.291 9.85603C20.1236 8.28746 19.4247 6.82334 18.3104 5.70681C17.196 4.59027 15.7333 3.8885 14.165 3.71803C13.9956 3.69801 13.8359 3.62823 13.7061 3.51751C13.5764 3.40678 13.4823 3.26008 13.4359 3.09592C13.3894 2.93177 13.3927 2.75754 13.4452 2.59523C13.4977 2.43293 13.5972 2.28983 13.731 2.18403C13.8177 2.11358 13.9178 2.06162 14.0253 2.03136C14.1328 2.00109 14.2453 1.99315 14.356 2.00803C16.3119 2.22053 18.1361 3.09589 19.5256 4.48865C20.9151 5.88141 21.7861 7.7077 21.994 9.66403C22.007 9.77608 21.9977 9.88958 21.9666 9.99802C21.9356 10.1065 21.8835 10.2077 21.8133 10.296C21.743 10.3842 21.6561 10.4578 21.5573 10.5123C21.4586 10.5669 21.3501 10.6015 21.238 10.614C21.2049 10.6184 21.1715 10.6204 21.138 10.62C20.9276 10.619 20.725 10.5406 20.5687 10.3997C20.4125 10.2587 20.3136 10.0652 20.291 9.85603Z" fill="white"/>
</svg>
