<svg width="24" height="24" viewBox="0 0 24 24" fill="none" xmlns="http://www.w3.org/2000/svg">
<path d="M12 2C10.0222 2 8.08879 2.58649 6.4443 3.6853C4.79981 4.78412 3.51809 6.3459 2.76121 8.17317C2.00433 10.0004 1.8063 12.0111 2.19215 13.9509C2.578 15.8907 3.53041 17.6725 4.92894 19.0711C6.32746 20.4696 8.10929 21.422 10.0491 21.8079C11.9889 22.1937 13.9996 21.9957 15.8268 21.2388C17.6541 20.4819 19.2159 19.2002 20.3147 17.5557C21.4135 15.9112 22 13.9778 22 12C21.9958 9.34913 20.9408 6.80805 19.0664 4.93361C17.192 3.05916 14.6509 2.00423 12 2ZM15.36 14.3C15.4995 14.4411 15.5777 14.6316 15.5777 14.83C15.5777 15.0284 15.4995 15.2189 15.36 15.36C15.2905 15.4298 15.2079 15.4852 15.117 15.5229C15.026 15.5607 14.9285 15.5802 14.83 15.5802C14.7315 15.5802 14.634 15.5607 14.543 15.5229C14.4521 15.4852 14.3695 15.4298 14.3 15.36L12 13.06L9.7 15.36C9.63051 15.4298 9.54791 15.4852 9.45696 15.5229C9.36601 15.5607 9.26849 15.5802 9.17 15.5802C9.07152 15.5802 8.974 15.5607 8.88305 15.5229C8.7921 15.4852 8.7095 15.4298 8.64 15.36C8.50052 15.2189 8.4223 15.0284 8.4223 14.83C8.4223 14.6316 8.50052 14.4411 8.64 14.3L10.94 12L8.64 9.7C8.50752 9.55783 8.4354 9.36978 8.43883 9.17548C8.44226 8.98118 8.52097 8.79579 8.65838 8.65838C8.7958 8.52097 8.98118 8.44225 9.17548 8.43883C9.36978 8.4354 9.55783 8.50752 9.7 8.64L12 10.94L14.3 8.64C14.4422 8.50752 14.6302 8.4354 14.8245 8.43883C15.0188 8.44225 15.2042 8.52097 15.3416 8.65838C15.479 8.79579 15.5578 8.98118 15.5612 9.17548C15.5646 9.36978 15.4925 9.55783 15.36 9.7L13.06 12L15.36 14.3Z" fill="#292D32"/>
</svg>
