<svg width="30" height="30" viewBox="0 0 30 30" fill="none" xmlns="http://www.w3.org/2000/svg">
<path d="M14.9999 0.833496C12.198 0.833496 9.45904 1.66436 7.12935 3.22101C4.79965 4.77766 2.98387 6.99019 1.91163 9.57881C0.83939 12.1674 0.558843 15.0159 1.10547 17.7639C1.65209 20.512 3.00134 23.0363 4.98258 25.0175C6.96382 26.9988 9.48808 28.348 12.2361 28.8946C14.9842 29.4412 17.8327 29.1607 20.4213 28.0885C23.0099 27.0162 25.2224 25.2004 26.7791 22.8707C28.3357 20.541 29.1666 17.8021 29.1666 15.0002C29.1606 11.2448 27.6661 7.6449 25.0107 4.98944C22.3552 2.33397 18.7553 0.83949 14.9999 0.833496ZM21.7716 11.7418L13.7391 19.7743C13.6406 19.8732 13.5236 19.9516 13.3948 20.0052C13.2659 20.0587 13.1278 20.0862 12.9883 20.0862C12.8487 20.0862 12.7106 20.0587 12.5817 20.0052C12.4529 19.9516 12.3359 19.8732 12.2374 19.7743L8.22826 15.7652C8.12387 15.6679 8.04014 15.5506 7.98207 15.4203C7.924 15.2899 7.89277 15.1492 7.89025 15.0066C7.88774 14.8639 7.91398 14.7222 7.96742 14.5899C8.02086 14.4576 8.10039 14.3374 8.20129 14.2365C8.30218 14.1356 8.42236 14.0561 8.55466 14.0027C8.68696 13.9492 8.82867 13.923 8.97133 13.9255C9.11399 13.928 9.25469 13.9592 9.38502 14.0173C9.51535 14.0754 9.63265 14.1591 9.72993 14.2635L12.9883 17.5218L20.2699 10.2402C20.4713 10.0525 20.7377 9.95031 21.013 9.95516C21.2883 9.96002 21.5509 10.0715 21.7456 10.2662C21.9402 10.4609 22.0517 10.7235 22.0566 10.9988C22.0614 11.274 21.9593 11.5404 21.7716 11.7418Z" fill="#1DE461"/>
</svg>
