<svg width="60" height="61" viewBox="0 0 60 61" fill="none" xmlns="http://www.w3.org/2000/svg">
<g clip-path="url(#clip0_122_7353)">
<path d="M18.5609 28.3013C18.238 28.3013 17.9254 28.1279 17.7625 27.8233C17.5268 27.3828 17.6927 26.8345 18.1333 26.5987L27.5687 21.5491L36.9495 15.6831C36.9545 15.6798 36.9597 15.6767 36.9649 15.6737L44.982 10.8804C45.411 10.624 45.9665 10.7638 46.2229 11.1927C46.4793 11.6215 46.3395 12.1771 45.9107 12.4335L37.9012 17.2221L28.5022 23.0995C28.4849 23.1103 28.4673 23.1205 28.4493 23.1302L18.987 28.1942C18.8512 28.2668 18.705 28.3013 18.5609 28.3013Z" fill="#C8EFFE"/>
<path d="M45.4446 51.1696C45.2852 51.1696 45.1236 51.1274 44.9772 51.039L36.2886 45.7833C36.2848 45.7809 36.281 45.7786 36.2772 45.7762L27.5419 40.3137C27.5302 40.3064 27.5186 40.2988 27.5072 40.2909L19.4159 34.6988C19.0047 34.4147 18.9018 33.8512 19.1859 33.4401C19.47 33.0291 20.0336 32.9261 20.4446 33.2102L28.5188 38.7905L37.2307 44.2383L45.9137 49.4906C46.3412 49.7493 46.4781 50.3055 46.2196 50.7331C46.0496 51.0141 45.7508 51.1696 45.4446 51.1696Z" fill="#C8EFFE"/>
<path d="M48.2739 11.8184C47.7742 11.8184 47.3691 12.2234 47.3691 12.7231V45.373C47.3691 45.8727 47.7742 46.2778 48.2739 46.2778C48.7736 46.2778 49.1787 45.8727 49.1787 45.373V12.7231C49.1787 12.2234 48.7736 11.8184 48.2739 11.8184Z" fill="#C8EFFE"/>
<path d="M15.3143 15.5664C6.85783 15.5664 0.000976562 22.4233 0.000976562 30.8797C0.000976562 36.5766 3.11214 41.5462 7.72748 44.1839L8.76759 43.6161L21.8839 43.4254L22.8822 44.1947C27.5081 41.56 30.6276 36.5845 30.6276 30.8797C30.6276 22.4233 23.772 15.5664 15.3143 15.5664Z" fill="#98BCE5"/>
<path d="M10.4853 39.8708C8.65081 37.3461 7.5686 34.2394 7.5686 30.8797C7.5686 23.7292 12.4712 17.723 19.0979 16.0382C17.8874 15.7305 16.6195 15.5664 15.3133 15.5664C6.85685 15.5663 0 22.4231 0 30.8796C0 36.5762 3.11092 41.5457 7.72602 44.1835L10.4853 39.8708Z" fill="#7BACDF"/>
<path d="M15.3144 42.5735C21.773 42.5735 27.0087 37.3378 27.0087 30.8792C27.0087 24.4206 21.773 19.1849 15.3144 19.1849C8.85583 19.1849 3.62012 24.4206 3.62012 30.8792C3.62012 37.3378 8.85583 42.5735 15.3144 42.5735Z" fill="#5F99D7"/>
<path d="M12.6449 19.4927C7.47873 20.7036 3.62012 25.3491 3.62012 30.8792C3.62012 36.4096 7.47909 41.0553 12.6456 42.2659C9.52951 39.463 7.56932 35.4001 7.56932 30.8787C7.56932 26.3583 9.52915 22.2957 12.6449 19.4927Z" fill="#3C87D0"/>
<path d="M22.8242 40.6199C22.8242 39.7766 22.449 38.9768 21.8 38.4376L17.4994 34.8668L16.6092 33.9543H14.0152L13.1023 34.8668L8.80164 38.4376C8.15384 38.9768 7.77746 39.7766 7.77746 40.6199L7.72559 44.1834C9.96215 45.4609 12.5534 46.192 15.3135 46.192C18.0664 46.192 20.6491 45.4658 22.8821 44.1943L22.8242 40.6199Z" fill="#ADE194"/>
<path d="M18.1218 35.3836L17.4994 34.8668L16.6092 33.9543H14.0152L13.1023 34.8668L8.80164 38.4376C8.15384 38.9768 7.77746 39.7766 7.77746 40.6199L7.72559 44.1834C8.63336 44.7019 9.60036 45.1286 10.6126 45.4548L10.6622 42.0491C10.6622 41.2059 11.0386 40.4061 11.6864 39.8669L12.8254 38.9211C13.3101 38.5187 13.9475 38.3314 14.5669 38.4463C14.8053 38.4904 15.0507 38.5136 15.3014 38.5136C16.3736 38.5136 17.3804 38.096 18.1346 37.3395C18.4973 36.977 18.7812 36.5556 18.9798 36.0961L18.1218 35.3836Z" fill="#97DA7B"/>
<path d="M17.4997 30.869V34.5062C17.4997 34.628 17.49 34.7462 17.4707 34.862C17.3947 35.3265 17.1739 35.7415 16.8555 36.0599C16.4586 36.458 15.9085 36.7041 15.3017 36.7041C14.2088 36.7041 13.3016 35.9067 13.1315 34.862C13.1122 34.7462 13.1025 34.628 13.1025 34.5062V30.857L13.1484 30.7581C13.8058 31.0657 14.5393 31.2382 15.3138 31.2382C16.0786 31.2382 16.8036 31.0705 17.4538 30.7701L17.4997 30.869Z" fill="#FED2A4"/>
<path d="M18.3567 20.24H12.5361L10.7302 19.6464C10.4685 19.5608 10.1982 19.7562 10.1982 20.0325V25.0388L11.9359 26.8987H19.4809L20.4292 25.0388V22.3125C20.4292 21.1676 19.5016 20.24 18.3567 20.24Z" fill="#A79BA7"/>
<path d="M13.1019 22.3579C13.1019 22.0817 13.3721 21.8863 13.6339 21.9719L15.4398 22.5654H20.4292V22.3125C20.4292 21.1676 19.5016 20.24 18.3567 20.24H12.5361L10.7302 19.6464C10.4685 19.5608 10.1982 19.7562 10.1982 20.0325V25.0388L11.9359 26.8987H13.1019V22.3579Z" fill="#918291"/>
<path d="M20.4292 25.0388V28.2947C20.4292 30.3552 19.2096 32.1321 17.4532 32.9416C16.803 33.242 16.078 33.4096 15.3131 33.4096C14.5387 33.4096 13.8052 33.2371 13.1478 32.9295C11.4046 32.114 10.1982 30.3455 10.1982 28.2947V25.0388H20.4292Z" fill="#FED2A4"/>
<path d="M16.0514 32.9295C14.3083 32.114 13.1019 30.3455 13.1019 28.2947V25.0388H10.1982V28.2947C10.1982 30.3455 11.4046 32.114 13.1478 32.9295C13.8052 33.2371 14.5387 33.4096 15.3131 33.4096C15.8181 33.4096 16.3051 33.3352 16.7652 33.1991C16.5191 33.1263 16.2804 33.0368 16.0514 32.9295Z" fill="#FFBD86"/>
<path d="M48.2743 0.262573C41.7986 0.262573 36.5498 5.51137 36.5498 11.9882C36.5498 15.8903 38.4562 19.3462 41.3878 21.4774L42.4217 20.5104L53.9788 20.6901L55.1593 21.4792C58.0926 19.3482 60 15.8915 60 11.9883C59.9999 5.51137 54.7511 0.262573 48.2743 0.262573Z" fill="#98BCE5"/>
<path d="M44.6563 17.6033C43.7445 15.9356 43.2247 14.0231 43.2247 11.9882C43.2247 6.67127 46.7622 2.18283 51.6115 0.745352C50.5534 0.431703 49.4332 0.262573 48.2733 0.262573C41.7976 0.262573 36.5488 5.51137 36.5488 11.9882C36.5488 15.8903 38.4551 19.3462 41.3867 21.4773L44.6563 17.6033Z" fill="#7BACDF"/>
<path d="M48.2744 20.0928C43.805 20.0928 40.1689 16.4567 40.1689 11.9874C40.1689 7.51738 43.805 3.88074 48.2744 3.88074C52.7443 3.88074 56.381 7.51738 56.381 11.9874C56.3811 16.4567 52.7445 20.0928 48.2744 20.0928Z" fill="#5F99D7"/>
<path d="M46.2408 19.8343C44.3673 17.7565 43.2258 15.0058 43.2258 11.9874C43.2258 8.96839 44.3673 6.21721 46.241 4.13928C42.7526 5.04392 40.1689 8.2195 40.1689 11.9874C40.1691 15.7547 42.7526 18.9298 46.2408 19.8343Z" fill="#3C87D0"/>
<path d="M48.2739 13.979C52.0738 13.979 55.1536 17.0588 55.1536 20.8588L55.1595 21.4787C53.2077 22.9324 50.8963 23.7118 48.2739 23.7118C45.6525 23.7118 43.3398 22.9309 41.3867 21.4773L41.3941 20.8588C41.3941 18.9588 42.1637 17.2385 43.4099 15.9936C44.6548 14.7487 46.3739 13.979 48.2739 13.979Z" fill="#F37C7C"/>
<path d="M48.2741 3.88074C51.0632 3.88074 53.3239 6.14142 53.3239 8.92928C53.3239 11.7183 51.0632 13.979 48.2741 13.979C45.4863 13.979 43.2256 11.7183 43.2256 8.92928C43.2256 6.14142 45.4863 3.88074 48.2741 3.88074Z" fill="#FFE5C2"/>
<path d="M44.0881 22.6279C44.0881 20.7279 44.8577 19.0076 46.1039 17.7627C47.3488 16.5178 49.0679 15.7481 50.9679 15.7481C51.782 15.7481 52.5644 15.8897 53.2893 16.1493C52.0345 14.8137 50.2514 13.979 48.2739 13.979C46.3739 13.979 44.6548 14.7487 43.4099 15.9936C42.1637 17.2385 41.3941 18.9588 41.3941 20.8588L41.3867 21.4773C42.2214 22.0984 43.1228 22.5966 44.0847 22.9637L44.0881 22.6279Z" fill="#EE6161"/>
<path d="M46.7383 8.79538C46.7383 6.69393 48.0261 4.89226 49.8526 4.13226C49.3567 3.96952 48.8245 3.88074 48.2741 3.88074C45.4863 3.88074 43.2256 6.14142 43.2256 8.92928C43.2256 11.7183 45.4863 13.979 48.2741 13.979C48.9609 13.979 49.6156 13.8415 50.2124 13.5932C48.1957 12.9313 46.7383 11.0341 46.7383 8.79538Z" fill="#FED2A4"/>
<path d="M48.2743 36.7043C41.7986 36.7043 36.5498 41.9544 36.5498 48.43C36.5498 52.3357 38.4596 55.7947 41.3958 57.9257L42.5135 57.4475L54.4536 57.6895L55.1533 57.926C58.09 55.795 59.9999 52.3357 59.9999 48.4299C59.9999 41.9544 54.7511 36.7043 48.2743 36.7043Z" fill="#98BCE5"/>
<path d="M44.3926 54.0648C43.4747 52.3926 42.9514 50.4731 42.9514 48.4307C42.9514 43.065 46.5551 38.541 51.4743 37.1477C50.4565 36.8595 49.3825 36.7051 48.2723 36.7051C41.7966 36.7051 36.5479 41.9551 36.5479 48.4307C36.5479 52.3361 38.4574 55.7951 41.3933 57.9261L44.3926 54.0648Z" fill="#7BACDF"/>
<path d="M48.2734 56.5365C43.804 56.5365 40.168 52.8998 40.168 48.4299C40.168 43.9599 43.804 40.3232 48.2734 40.3232C52.7434 40.3232 56.38 43.9599 56.38 48.4299C56.38 52.8998 52.7435 56.5365 48.2734 56.5365Z" fill="#5F99D7"/>
<path d="M45.8759 56.1743C44.057 54.1085 42.9523 51.3986 42.9523 48.4298C42.9523 45.461 44.0535 42.7521 45.8724 40.6864C42.5698 41.7112 40.168 44.7942 40.168 48.4298C40.168 52.0654 42.5733 55.1495 45.8759 56.1743Z" fill="#3C87D0"/>
<path d="M48.274 50.4225C51.0627 50.4225 53.3234 48.1618 53.3234 45.3731C53.3234 42.5844 51.0627 40.3237 48.274 40.3237C45.4853 40.3237 43.2246 42.5844 43.2246 45.3731C43.2246 48.1618 45.4853 50.4225 48.274 50.4225Z" fill="#FFE5C2"/>
<path d="M46.3226 45.3731C46.3226 43.125 47.7953 41.2208 49.8261 40.5667C49.3379 40.4095 48.8146 40.3237 48.274 40.3237C45.4853 40.3237 43.2246 42.5844 43.2246 45.3731C43.2246 48.1618 45.4853 50.4225 48.274 50.4225C48.8146 50.4225 49.3378 50.3367 49.8261 50.1796C47.7954 49.5255 46.3226 47.6213 46.3226 45.3731Z" fill="#FED2A4"/>
<path d="M55.1531 57.9262C53.2217 59.3292 50.844 60.1555 48.2733 60.1555C45.7026 60.1555 43.3261 59.328 41.3936 57.9262V57.3025C41.3936 55.4025 42.1632 53.6823 43.4094 52.4373C44.6543 51.1924 46.3733 50.4227 48.2733 50.4227C52.0733 50.4227 55.1531 53.5025 55.1531 57.3025V57.9262Z" fill="#FEE97D"/>
<path d="M44.012 59.0135C44.012 57.1135 44.7817 55.3932 46.0278 54.1483C47.2728 52.9033 48.9918 52.1337 50.8918 52.1337C51.717 52.1337 52.5111 52.2798 53.2442 52.546C51.9919 51.2386 50.2269 50.4227 48.2733 50.4227C46.3733 50.4227 44.6543 51.1924 43.4094 52.4373C42.1632 53.6823 41.3936 55.4025 41.3936 57.3025V57.9262C42.1955 58.5079 43.0764 58.9916 44.0135 59.3575L44.012 59.0135Z" fill="#FEE45A"/>
</g>
<defs>
<clipPath id="clip0_122_7353">
<rect width="60" height="60" fill="white" transform="translate(0 0.208984)"/>
</clipPath>
</defs>
</svg>
