<svg width="19" height="20" viewBox="0 0 19 20" fill="none" xmlns="http://www.w3.org/2000/svg">
<path d="M5.13441 19.959C4.37104 19.9667 3.63512 19.6747 3.08467 19.1457C2.53422 18.6168 2.21315 17.8931 2.19041 17.13L2.06241 15.871L1.84041 13.427L1.61241 10.746L1.35241 7.528C1.33487 7.33227 1.39548 7.13755 1.52101 6.98635C1.64654 6.83515 1.82679 6.73976 2.02241 6.721C2.20058 6.7082 2.37732 6.76072 2.51958 6.86876C2.66185 6.97679 2.7599 7.13293 2.79541 7.308L2.82541 7.602L3.07041 10.62L3.33641 13.747C3.45741 15.101 3.56041 16.197 3.64341 16.966C3.63754 17.1661 3.67307 17.3652 3.74779 17.551C3.8225 17.7367 3.93479 17.9049 4.0776 18.0452C4.22041 18.1855 4.39066 18.2947 4.57768 18.3661C4.7647 18.4375 4.96445 18.4695 5.16441 18.46C7.61641 18.513 10.1414 18.514 12.7704 18.465C12.9759 18.4803 13.1823 18.4524 13.3763 18.3831C13.5704 18.3138 13.7478 18.2047 13.8972 18.0628C14.0466 17.9208 14.1646 17.7492 14.2437 17.559C14.3228 17.3687 14.3612 17.164 14.3564 16.958L14.4834 15.705C14.5204 15.319 14.5594 14.892 14.6024 14.43L14.8694 11.354L15.1904 7.408C15.2029 7.22958 15.2794 7.06166 15.4058 6.9351C15.5322 6.80853 15.7 6.7318 15.8784 6.719H15.9784C16.1567 6.73575 16.3228 6.81648 16.4462 6.94627C16.5696 7.07605 16.6417 7.24611 16.6494 7.425L16.6394 7.631L16.3254 11.482L16.0004 15.241C15.9314 15.992 15.8684 16.624 15.8154 17.122C15.7901 17.8979 15.4588 18.6322 14.8939 19.1647C14.329 19.6971 13.5764 19.9845 12.8004 19.964C11.5091 19.988 10.2424 20 9.00041 20C7.68974 20 6.40107 19.9863 5.13441 19.959ZM14.0824 4.99H0.732408C0.548682 4.98043 0.37484 4.90384 0.243781 4.77473C0.112722 4.64561 0.0335397 4.47294 0.0212202 4.28937C0.00890061 4.10581 0.0642985 3.9241 0.176929 3.77864C0.28956 3.63317 0.451609 3.53404 0.632408 3.5L0.732408 3.494H3.91841C4.1032 3.4925 4.28282 3.43274 4.43166 3.32321C4.58051 3.21368 4.69101 3.05998 4.74741 2.884L4.77641 2.773L5.02341 1.51C5.12342 1.10786 5.3463 0.746904 5.66103 0.477343C5.97575 0.207782 6.36668 0.0430263 6.77941 0.006L6.93641 0H11.0634C11.4829 0.00427819 11.8902 0.141134 12.2272 0.390983C12.5642 0.640832 12.8135 0.990868 12.9394 1.391L12.9874 1.553L13.2254 2.768C13.259 2.95022 13.349 3.11728 13.4827 3.24558C13.6163 3.37388 13.787 3.45693 13.9704 3.483L14.0834 3.49H17.2694C17.4573 3.49374 17.6369 3.56778 17.7729 3.69749C17.9088 3.82721 17.9912 4.00317 18.0038 4.19066C18.0163 4.37815 17.9581 4.56353 17.8407 4.71022C17.7233 4.8569 17.5551 4.95424 17.3694 4.983L17.2694 4.99H14.0824ZM11.9144 3.49C11.8808 3.40436 11.8521 3.31688 11.8284 3.228L11.7904 3.062L11.5634 1.893C11.5388 1.79592 11.4868 1.70798 11.4136 1.6397C11.3403 1.57142 11.249 1.5257 11.1504 1.508L11.0644 1.5H6.93641C6.84112 1.49987 6.74759 1.52567 6.66585 1.57464C6.58411 1.62362 6.51724 1.69392 6.47241 1.778L6.44641 1.845L6.21041 3.063C6.18211 3.2088 6.1406 3.35172 6.08641 3.49H11.9144Z" fill="#B40821"/>
</svg>
