<svg width="13" height="9" viewBox="0 0 13 9" fill="none" xmlns="http://www.w3.org/2000/svg">
<path d="M0.357563 1.13227C0.466798 1.01981 0.613409 0.9512 0.769745 0.939387C0.926081 0.927574 1.08134 0.973374 1.20623 1.06815L1.27906 1.13227L6.5001 6.45781L11.7211 1.13227C11.8304 1.01981 11.977 0.9512 12.1333 0.939387C12.2897 0.927574 12.4449 0.973374 12.5698 1.06815L12.6426 1.13227C12.7533 1.24601 12.8203 1.39512 12.8319 1.55338C12.8435 1.71165 12.7989 1.86893 12.706 1.99756L12.6426 2.07198L6.96085 7.86777C6.85162 7.98024 6.70501 8.04885 6.54867 8.06066C6.39234 8.07247 6.23708 8.02667 6.11219 7.9319L6.03935 7.86777L0.357563 2.07198C0.235351 1.94611 0.166992 1.77757 0.166992 1.60213C0.166992 1.42668 0.235351 1.25815 0.357563 1.13227Z" fill="#71859E"/>
</svg>
