<svg width="19" height="19" viewBox="0 0 19 19" fill="none" xmlns="http://www.w3.org/2000/svg">
<g clip-path="url(#clip0_120_10801)">
<path d="M18.2827 7.84827L10.5328 7.8479C10.3685 7.8479 10.2108 7.91319 10.0946 8.02941C9.97838 8.14564 9.91309 8.30327 9.91309 8.46763V10.9432C9.91309 11.1076 9.97838 11.2652 10.0946 11.3814C10.2108 11.4977 10.3685 11.563 10.5328 11.563H14.8971C14.4197 12.7993 13.5351 13.8359 12.3892 14.5018L14.2501 17.7231C17.2353 15.9966 19.0001 12.9674 19.0001 9.57645C19.0042 9.16841 18.9684 8.76094 18.8934 8.35982C18.8675 8.21661 18.7922 8.08701 18.6806 7.99355C18.5691 7.9001 18.4283 7.84869 18.2827 7.84827Z" fill="#FA270A"/>
<path d="M9.49988 15.2827C7.36409 15.2827 5.49949 14.1157 4.49817 12.3889L1.27686 14.2456C1.89954 15.3266 2.72919 16.2743 3.71836 17.0344C4.70753 17.7945 5.83682 18.3522 7.04167 18.6755C8.24652 18.9989 9.5033 19.0816 10.7401 18.919C11.977 18.7563 13.1696 18.3514 14.2499 17.7275V17.7231L12.389 14.5016C11.512 15.0129 10.515 15.2824 9.49988 15.2827Z" fill="#FA270A"/>
<path d="M14.25 17.7274V17.723L12.3891 14.5015C11.5121 15.0127 10.5152 15.2822 9.5 15.2825V18.9999C11.1677 19.0008 12.8061 18.5618 14.25 17.7274Z" fill="#FA270A"/>
<path d="M3.7174 9.49998C3.71767 8.48492 3.98712 7.48808 4.49829 6.61112L1.27697 4.75439C0.440534 6.19608 0 7.83322 0 9.49998C0 11.1667 0.440534 12.8039 1.27697 14.2456L4.49829 12.3888C3.98712 11.5119 3.71767 10.515 3.7174 9.49998Z" fill="#FA270A"/>
<path d="M9.49989 3.71731C10.8398 3.71598 12.1381 4.18212 13.1712 5.0354C13.2894 5.13377 13.4401 5.18447 13.5937 5.17755C13.7474 5.17063 13.8929 5.1066 14.0018 4.99799L15.756 3.24384C15.8164 3.18301 15.8636 3.1104 15.8947 3.03054C15.9258 2.95067 15.9401 2.86526 15.9367 2.77962C15.9334 2.69397 15.9124 2.60994 15.8752 2.53275C15.8379 2.45556 15.7852 2.38686 15.7202 2.33095C14.6642 1.41127 13.4176 0.736976 12.07 0.356536C10.7223 -0.0239031 9.30709 -0.101037 7.92607 0.130678C6.54504 0.362394 5.23251 0.897203 4.08282 1.69666C2.93313 2.49612 1.97485 3.54037 1.27686 4.75433L4.49817 6.61106C5.49949 4.88425 7.36409 3.71731 9.49989 3.71731Z" fill="#FA270A"/>
<path d="M13.1713 5.03548C13.2895 5.13386 13.4402 5.18455 13.5939 5.17763C13.7475 5.17071 13.893 5.10668 14.0019 4.99808L15.7561 3.24392C15.8165 3.18309 15.8637 3.11048 15.8948 3.03061C15.9258 2.95075 15.9402 2.86534 15.9368 2.7797C15.9335 2.69406 15.9125 2.61003 15.8753 2.53284C15.838 2.45565 15.7853 2.38695 15.7203 2.33103C13.9963 0.828539 11.7869 0.000569501 9.5 0V3.7174C10.8399 3.71607 12.1382 4.18221 13.1713 5.03548Z" fill="#FA270A"/>
</g>
<defs>
<clipPath id="clip0_120_10801">
<path d="M0 9.5C0 4.25329 4.25329 0 9.5 0H19V19H9.5C4.25329 19 0 14.7467 0 9.5Z" fill="white"/>
</clipPath>
</defs>
</svg>
