<svg width="60" height="61" viewBox="0 0 60 61" fill="none" xmlns="http://www.w3.org/2000/svg">
<path d="M31.2808 4.20718L34.4609 7.7805L38.7664 5.69608C39.69 5.24891 40.7969 5.70742 41.1338 6.67672L42.7045 11.1951L47.4798 10.917C48.5042 10.8574 49.3514 11.7045 49.2917 12.7289L49.0136 17.5042L53.532 19.0749C54.5012 19.4118 54.9597 20.5186 54.5126 21.4423L52.4282 25.7478L56.0015 28.9279C56.768 29.6101 56.768 30.8082 56.0015 31.4903L52.4282 34.6704L54.5126 38.9759C54.9598 39.8995 54.5013 41.0064 53.532 41.3432L49.0136 42.9138L49.2917 47.6892C49.3513 48.7135 48.5042 49.5608 47.4798 49.501L42.7045 49.223L41.1338 53.7413C40.7969 54.7105 39.6901 55.169 38.7664 54.722L34.4609 52.6376L31.2808 56.2109C30.5986 56.9774 29.4005 56.9774 28.7184 56.2109L25.5383 52.6376L21.2328 54.722C20.3093 55.1692 19.2023 54.7106 18.8654 53.7413L17.2948 49.223L12.5194 49.501C11.4951 49.5607 10.6478 48.7135 10.7076 47.6892L10.9856 42.9138L6.46725 41.3432C5.49807 41.0063 5.03956 39.8995 5.4866 38.9759L7.57103 34.6704L3.99771 31.4903C3.23123 30.8081 3.23123 29.61 3.99771 28.9279L7.57103 25.7478L5.4866 21.4423C5.03944 20.5187 5.49795 19.4118 6.46725 19.0749L10.9856 17.5042L10.7076 12.7289C10.6479 11.7045 11.4951 10.8573 12.5194 10.917L17.2948 11.1951L18.8654 6.67672C19.2023 5.70755 20.3091 5.24903 21.2328 5.69608L25.5383 7.7805L28.7184 4.20718C29.4005 3.4407 30.5986 3.4407 31.2808 4.20718Z" fill="#FFCF5D"/>
<path d="M56.001 28.9278L52.4277 25.7477L54.5121 21.4422C54.9593 20.5186 54.5008 19.4117 53.5316 19.0748L49.0133 17.5042L49.2913 12.7288C49.3509 11.7044 48.5038 10.8573 47.4795 10.917L42.7041 11.195L41.1335 6.67664C40.7965 5.70746 39.6897 5.24895 38.7661 5.69611L37.2185 6.44533L39.2829 12.3842C39.8147 13.9141 41.2983 14.9056 42.9144 14.8107L45.551 14.6572L45.3974 17.2939C45.3033 18.9108 46.2941 20.3936 47.8239 20.9254L50.3187 21.7925L49.1678 24.1697C48.462 25.6275 48.81 27.3765 50.0199 28.4533L51.9927 30.2091L50.0199 31.9649C48.81 33.0416 48.462 34.7907 49.1678 36.2484L50.3187 38.6256L47.8239 39.4928C46.2941 40.0246 45.3033 41.5074 45.3974 43.1243L45.551 45.7609L42.9144 45.6075C41.2969 45.5149 39.8147 46.5042 39.2829 48.034L38.4157 50.5285L36.0385 49.3778C34.5807 48.672 32.8316 49.02 31.7549 50.2299L29.9992 52.2028L28.2434 50.2298C27.1666 49.0199 25.4173 48.6718 23.9597 49.3777L21.5825 50.5284L20.7154 48.0339C20.1836 46.5041 18.7011 45.5149 17.0839 45.6073L10.807 45.9728L10.7071 47.6891C10.6474 48.7135 11.4946 49.5607 12.5189 49.5011L17.2943 49.223L18.8649 53.7414C19.2018 54.7107 20.3086 55.1691 21.2323 54.722L25.5378 52.6377L28.7179 56.211C29.4001 56.9775 30.5982 56.9775 31.2803 56.211L34.4604 52.6377L38.7659 54.722C39.6895 55.1692 40.7964 54.7107 41.1333 53.7414L42.704 49.223L47.4793 49.5011C48.5037 49.5607 49.3509 48.7136 49.2912 47.6891L49.0131 42.9137L53.5315 41.3431C54.5007 41.0062 54.9592 39.8994 54.512 38.9757L52.4276 34.6702L56.0009 31.4901C56.7675 30.8081 56.7675 29.61 56.001 28.9278Z" fill="#FFB545"/>
<path d="M29.9997 47.4401C39.5161 47.4401 47.2308 39.7255 47.2308 30.209C47.2308 20.6925 39.5161 12.9779 29.9997 12.9779C20.4832 12.9779 12.7686 20.6925 12.7686 30.209C12.7686 39.7255 20.4832 47.4401 29.9997 47.4401Z" fill="#FFB545"/>
<path d="M22.7132 26.6477C22.7132 27.1478 22.3079 27.553 21.8077 27.553H19.3936C18.8937 27.553 18.4883 27.1478 18.4883 26.6477C18.4883 26.1475 18.8936 25.7424 19.3936 25.7424H19.6954V23.2767C19.3769 23.3885 19.0082 23.3176 18.7534 23.0629C18.3999 22.7093 18.3999 22.1362 18.7534 21.7826L19.9606 20.5756C20.2195 20.3165 20.609 20.2394 20.9471 20.3793C21.2853 20.5195 21.5059 20.8496 21.5059 21.2157V25.7424H21.8076C22.3079 25.7424 22.7132 26.1475 22.7132 26.6477Z" fill="#3F5F94"/>
<path d="M29.1789 23.0265V24.8371C29.1789 26.3346 27.9607 27.553 26.4629 27.553C24.9653 27.553 23.7471 26.3346 23.7471 24.8371V23.0265C23.7471 21.5289 24.9653 20.3105 26.4629 20.3105C27.9606 20.3104 29.1789 21.5287 29.1789 23.0265ZM27.3683 23.0265C27.3683 22.5272 26.9622 22.1212 26.4629 22.1212C25.9638 22.1212 25.5577 22.5272 25.5577 23.0265V24.8371C25.5577 25.3364 25.9638 25.7424 26.4629 25.7424C26.9622 25.7424 27.3683 25.3364 27.3683 24.8371V23.0265Z" fill="#3F5F94"/>
<path d="M35.6467 23.0265V24.8371C35.6467 26.3346 34.4285 27.553 32.9307 27.553C31.4331 27.553 30.2148 26.3346 30.2148 24.8371V23.0265C30.2148 21.5289 31.4331 20.3105 32.9307 20.3105C34.4285 20.3104 35.6467 21.5287 35.6467 23.0265ZM33.8361 23.0265C33.8361 22.5272 33.43 22.1212 32.9307 22.1212C32.4316 22.1212 32.0255 22.5272 32.0255 23.0265V24.8371C32.0255 25.3364 32.4316 25.7424 32.9307 25.7424C33.43 25.7424 33.8361 25.3364 33.8361 24.8371V23.0265Z" fill="#3F5F94"/>
<path d="M41.3969 21.6544L38.3796 27.0858C38.214 27.3835 37.9053 27.5514 37.5872 27.5514C37.4386 27.5514 37.2878 27.515 37.1484 27.4377C36.7114 27.1948 36.554 26.6437 36.7966 26.2067L39.8141 20.7751C40.0569 20.3379 40.6079 20.1805 41.0451 20.4233C41.4823 20.6662 41.6396 21.2173 41.3969 21.6544ZM36.6826 21.2146C36.6826 20.7145 37.0878 20.3093 37.588 20.3093C38.0879 20.3093 38.4934 20.7145 38.4934 21.2146C38.4934 21.7147 38.0879 22.1199 37.588 22.1199C37.0879 22.1199 36.6826 21.7145 36.6826 21.2146ZM39.7004 26.6464C39.7004 26.1465 40.1057 25.7412 40.6058 25.7412C41.1057 25.7412 41.5111 26.1465 41.5111 26.6464C41.5111 27.1465 41.1057 27.5517 40.6058 27.5517C40.1057 27.5517 39.7004 27.1464 39.7004 26.6464Z" fill="#3F5F94"/>
<path d="M58.1891 41.0742H1.81086C0.810785 41.0742 0 40.2634 0 39.2633V32.0198C0 31.0198 0.810785 30.209 1.81086 30.209H58.1891C59.1892 30.209 60 31.0198 60 32.0198V39.2633C60 40.2634 59.1892 41.0742 58.1891 41.0742Z" fill="#3F5F94"/>
<path d="M8.3725 35.6415C8.3725 36.609 7.99572 37.5182 7.31169 38.2022C6.62767 38.8862 5.71837 39.2629 4.75125 39.2629C2.75447 39.2629 1.12988 37.6384 1.12988 35.6415C1.12988 33.6449 2.75447 32.0204 4.75125 32.0204H5.4156C5.91576 32.0204 6.32103 32.4255 6.32103 32.9256C6.32103 33.4259 5.91588 33.831 5.4156 33.831H4.75125C3.75274 33.831 2.94063 34.6434 2.94063 35.6415C2.94063 36.64 3.75286 37.4523 4.75125 37.4523C5.23475 37.4523 5.6894 37.2638 6.03165 36.9219C6.14513 36.8082 6.24195 36.6824 6.32018 36.5469H5.89874C5.39869 36.5469 4.9933 36.1418 4.9933 35.6415C4.9933 35.1415 5.39857 34.7363 5.89874 34.7363H7.46731C7.96747 34.7363 8.3725 35.1416 8.3725 35.6415Z" fill="#FFCF5D"/>
<path d="M15.2508 32.9256V36.2029C15.2508 37.8904 13.8701 39.2629 12.1728 39.2629C10.4753 39.2629 9.09473 37.8904 9.09473 36.2029V32.9256C9.09473 32.4255 9.5 32.0204 10 32.0204C10.5 32.0204 10.9055 32.4255 10.9055 32.9256V36.2029C10.9055 36.8917 11.474 37.4523 12.173 37.4523C12.8718 37.4523 13.4404 36.8917 13.4404 36.2029V32.9256C13.4404 32.4255 13.8457 32.0204 14.3459 32.0204C14.8454 32.0204 15.2508 32.4257 15.2508 32.9256Z" fill="#FFCF5D"/>
<path d="M20.9868 39.2052C20.882 39.2445 20.7747 39.263 20.6691 39.263C20.3025 39.263 19.9576 39.0389 19.8214 38.6754L19.7022 38.3576H17.562L17.4428 38.6754C17.267 39.1436 16.7455 39.3803 16.2771 39.2052C15.8092 39.0298 15.5717 38.508 15.7474 38.0397L17.7843 32.6077C17.9168 32.2545 18.2547 32.0205 18.6319 32.0205C19.0092 32.0205 19.347 32.2545 19.4796 32.6077L21.5164 38.0397C21.6919 38.5079 21.4548 39.0296 20.9868 39.2052ZM19.0229 36.5469L18.6318 35.5039L18.2407 36.5469H19.0229Z" fill="#FFCF5D"/>
<path d="M27.7098 37.7203C28.0617 38.0752 28.0593 38.6485 27.7043 39.0005C27.5277 39.1755 27.2972 39.263 27.0669 39.263C26.8339 39.263 26.6009 39.1738 26.424 38.9951L24.8941 37.4524H24.4113V38.3577C24.4113 38.8578 24.0058 39.263 23.5059 39.263C23.006 39.263 22.6006 38.8578 22.6006 38.3577V32.9257C22.6006 32.4257 23.0059 32.0205 23.5059 32.0205H25.2715C26.7606 32.0205 27.9722 33.239 27.9722 34.7364C27.9722 35.6199 27.5503 36.4059 26.8985 36.9022L27.7098 37.7203ZM26.1616 34.7363C26.1616 34.237 25.7622 33.831 25.2716 33.831H24.4115V35.6415H25.2716C25.7622 35.6415 26.1616 35.2355 26.1616 34.7363Z" fill="#FFCF5D"/>
<path d="M34.2944 39.2052C34.1896 39.2445 34.0823 39.263 33.9767 39.263C33.6101 39.263 33.2652 39.0389 33.1291 38.6754L33.0098 38.3576H30.8696L30.7504 38.6754C30.5747 39.1436 30.0531 39.3803 29.5847 39.2052C29.1168 39.0298 28.8793 38.508 29.055 38.0397L31.092 32.6077C31.2244 32.2545 31.5623 32.0205 31.9396 32.0205C32.3168 32.0205 32.6546 32.2545 32.7872 32.6077L34.824 38.0397C34.9996 38.5079 34.7625 39.0296 34.2944 39.2052ZM32.3305 36.5469L31.9394 35.5039L31.5483 36.5469H32.3305Z" fill="#FFCF5D"/>
<path d="M41.7035 32.9256V38.3576C41.7035 38.749 41.4519 39.0963 41.0797 39.218C40.9868 39.2483 40.8921 39.263 40.798 39.263C40.5151 39.263 40.2417 39.1301 40.0679 38.8931L37.7199 35.6914V38.3578C37.7199 38.858 37.3144 39.2631 36.8145 39.2631C36.3146 39.2631 35.9092 38.858 35.9092 38.3578V32.9258C35.9092 32.5346 36.1606 32.1872 36.5328 32.0655C36.9049 31.9436 37.313 32.075 37.5445 32.3904L39.8926 35.5921V32.9256C39.8926 32.4255 40.2979 32.0204 40.7978 32.0204C41.298 32.0204 41.7033 32.4257 41.7035 32.9256Z" fill="#FFCF5D"/>
<path d="M48.1338 32.9256C48.1338 33.4259 47.7285 33.831 47.2284 33.831H46.0816V38.3576C46.0816 38.8577 45.6763 39.2629 45.1763 39.2629C44.6763 39.2629 44.2709 38.8577 44.2709 38.3576V33.831H43.1242C42.6241 33.831 42.2188 33.4259 42.2188 32.9256C42.2188 32.4255 42.624 32.0204 43.1242 32.0204H47.2283C47.7284 32.0204 48.1338 32.4255 48.1338 32.9256Z" fill="#FFCF5D"/>
<path d="M53.252 38.3576C53.252 38.8577 52.8468 39.2629 52.3466 39.2629H49.5704C49.0704 39.2629 48.665 38.8577 48.665 38.3576V32.9256C48.665 32.4255 49.0703 32.0204 49.5704 32.0204H52.3466C52.8467 32.0204 53.252 32.4255 53.252 32.9256C53.252 33.4259 52.8468 33.831 52.3466 33.831H50.4757V34.7363H51.6224C52.1225 34.7363 52.5276 35.1415 52.5276 35.6415C52.5276 36.1418 52.1225 36.5469 51.6224 36.5469H50.4757V37.4523H52.3466C52.8468 37.4523 53.252 37.8574 53.252 38.3576Z" fill="#FFCF5D"/>
<path d="M58.8701 38.3576C58.8701 38.8577 58.465 39.2629 57.9648 39.2629H55.1885C54.6886 39.2629 54.2832 38.8577 54.2832 38.3576V32.9256C54.2832 32.4255 54.6885 32.0204 55.1885 32.0204H57.9648C58.4649 32.0204 58.8701 32.4255 58.8701 32.9256C58.8701 33.4259 58.465 33.831 57.9648 33.831H56.0938V34.7363H57.2406C57.7406 34.7363 58.1458 35.1415 58.1458 35.6415C58.1458 36.1418 57.7406 36.5469 57.2406 36.5469H56.0938V37.4523H57.9648C58.4649 37.4523 58.8701 37.8574 58.8701 38.3576Z" fill="#FFCF5D"/>
</svg>
