<svg width="20" height="20" viewBox="0 0 20 20" fill="none" xmlns="http://www.w3.org/2000/svg">
<g clip-path="url(#clip0_122_5775)">
<path d="M14.3996 0.00195312H4.79988C2.16018 0.00195312 0 2.16213 0 4.80184V14.4021C0 17.0411 2.16018 19.202 4.79988 19.202H14.3996C17.0393 19.202 19.1995 17.0411 19.1995 14.4021V4.80184C19.1995 2.16213 17.0393 0.00195312 14.3996 0.00195312ZM17.5995 14.4021C17.5995 16.166 16.1646 17.6019 14.3996 17.6019H4.79988C3.03569 17.6019 1.60004 16.166 1.60004 14.4021V4.80184C1.60004 3.03741 3.03569 1.60199 4.79988 1.60199H14.3996C16.1646 1.60199 17.5995 3.03741 17.5995 4.80184V14.4021Z" fill="white"/>
<path d="M14.8006 5.60209C15.4633 5.60209 16.0005 5.06484 16.0005 4.40212C16.0005 3.73939 15.4633 3.20215 14.8006 3.20215C14.1378 3.20215 13.6006 3.73939 13.6006 4.40212C13.6006 5.06484 14.1378 5.60209 14.8006 5.60209Z" fill="white"/>
<path d="M9.59969 4.80176C6.94822 4.80176 4.7998 6.95041 4.7998 9.60164C4.7998 12.2519 6.94822 14.402 9.59969 14.402C12.2504 14.402 14.3996 12.2519 14.3996 9.60164C14.3996 6.95041 12.2504 4.80176 9.59969 4.80176ZM9.59969 12.802C7.83259 12.802 6.39984 11.3692 6.39984 9.60164C6.39984 7.83407 7.83259 6.4018 9.59969 6.4018C11.3668 6.4018 12.7995 7.83407 12.7995 9.60164C12.7995 11.3692 11.3668 12.802 9.59969 12.802Z" fill="white"/>
</g>
<defs>
<clipPath id="clip0_122_5775">
<rect width="20" height="20" fill="white"/>
</clipPath>
</defs>
</svg>
