<svg width="18" height="18" viewBox="0 0 18 18" fill="none" xmlns="http://www.w3.org/2000/svg">
<path d="M12.0814 16.4074H5.9399C4.5473 16.4074 3.58804 16.083 3.00804 15.4163C2.40138 14.7185 2.20656 13.6667 2.41175 12.1955L2.98804 7.6074C3.07215 6.92906 3.38366 6.29925 3.87175 5.82073C4.24813 5.47985 4.73877 5.29269 5.24656 5.29629H5.30434C5.29499 5.24088 5.29499 5.18429 5.30434 5.12888C5.34485 4.17465 5.75242 3.27297 6.44194 2.6121C7.13146 1.95123 8.04963 1.58228 9.00471 1.58228C9.9598 1.58228 10.878 1.95123 11.5675 2.6121C12.257 3.27297 12.6646 4.17465 12.7051 5.12888H12.6858C12.6874 5.18648 12.6761 5.2437 12.6525 5.29629H12.7688C13.2724 5.29775 13.7565 5.49143 14.1221 5.83777C14.6034 6.31785 14.9221 6.93676 15.0332 7.6074L15.6029 12.1963C15.7258 12.7359 15.7294 13.2959 15.6135 13.8371C15.4976 14.3783 15.2649 14.8877 14.9317 15.3296C14.5627 15.7046 14.1169 15.9951 13.6248 16.1811C13.1327 16.3672 12.6062 16.4444 12.0814 16.4074ZM11.1377 7.76295C11.0036 7.75912 10.8714 7.79539 10.758 7.86712C10.6446 7.93886 10.5552 8.04279 10.5013 8.16562C10.4473 8.28844 10.4312 8.42458 10.4551 8.5566C10.4789 8.68862 10.5416 8.81053 10.6352 8.9067C10.7287 9.00288 10.8488 9.06896 10.9801 9.09649C11.1114 9.12401 11.248 9.11173 11.3722 9.06121C11.4965 9.01069 11.6029 8.92424 11.6778 8.81291C11.7526 8.70158 11.7926 8.57045 11.7925 8.43629C11.7943 8.26036 11.7264 8.09086 11.6038 7.96473C11.4811 7.8386 11.3136 7.76607 11.1377 7.76295ZM6.85249 7.76295C6.71839 7.75912 6.58619 7.79539 6.47282 7.86712C6.35944 7.93886 6.27006 8.04279 6.21609 8.16562C6.16213 8.28844 6.14604 8.42458 6.1699 8.5566C6.19375 8.68862 6.25646 8.81053 6.34999 8.9067C6.44352 9.00288 6.56363 9.06896 6.69493 9.09649C6.82624 9.12401 6.96277 9.11173 7.08706 9.06121C7.21134 9.01069 7.31772 8.92424 7.39259 8.81291C7.46745 8.70158 7.5074 8.57045 7.5073 8.43629C7.50909 8.26036 7.44126 8.09086 7.3186 7.96473C7.19594 7.8386 7.0284 7.76607 6.85249 7.76295ZM8.97545 2.55555C8.29216 2.55515 7.63663 2.82591 7.15278 3.30837C6.66892 3.79084 6.39628 4.44559 6.39471 5.12888C6.40475 5.18423 6.40475 5.24094 6.39471 5.29629H11.588C11.5676 5.24281 11.5568 5.18613 11.5562 5.12888C11.5546 4.44559 11.282 3.79084 10.7981 3.30837C10.3143 2.82591 9.65875 2.55515 8.97545 2.55555Z" fill="white"/>
</svg>
