<svg width="19" height="14" viewBox="0 0 19 14" fill="none" xmlns="http://www.w3.org/2000/svg">
<path d="M3.82218 11.0471C3.82218 9.23292 6.24801 8.76292 9.12301 8.76292C11.9822 8.76292 14.423 9.21625 14.423 11.0304C14.423 12.8446 11.9988 13.3137 9.12301 13.3137C6.26384 13.3137 3.82218 12.8604 3.82218 11.0471ZM15.9055 11.3804C15.9571 10.6181 15.7721 9.85841 15.3759 9.20513C14.9796 8.55186 14.3913 8.03684 13.6913 7.73042C13.6835 7.7275 13.6769 7.72207 13.6725 7.71498C13.6682 7.70788 13.6663 7.69954 13.6672 7.69125C13.6691 7.68545 13.6726 7.68033 13.6773 7.67649C13.682 7.67264 13.6878 7.67025 13.6938 7.66958C14.6008 7.65327 15.5069 7.7326 16.3972 7.90625C16.7575 7.9346 17.106 8.04746 17.4146 8.23568C17.7231 8.4239 17.9829 8.68218 18.173 8.98958C18.2774 9.2067 18.3316 9.44451 18.3316 9.68542C18.3316 9.92632 18.2774 10.1641 18.173 10.3812C17.7888 11.2146 16.553 11.4804 16.0722 11.5479H16.0497C16.0292 11.5471 16.0091 11.5421 15.9906 11.5333C15.9721 11.5246 15.9555 11.5121 15.9419 11.4968C15.9283 11.4815 15.9179 11.4636 15.9113 11.4442C15.9048 11.4247 15.9023 11.4042 15.9038 11.3837L15.9055 11.3804ZM2.25968 11.5512C1.77968 11.4821 0.54301 11.2179 0.159676 10.3846C0.0545927 10.1678 0 9.93006 0 9.68917C0 9.44827 0.0545927 9.21051 0.159676 8.99375C0.34899 8.6855 0.60844 8.42633 0.916892 8.23735C1.22534 8.04837 1.57407 7.93492 1.93468 7.90625C2.82513 7.73381 3.73115 7.65477 4.63801 7.67042C4.644 7.67091 4.64972 7.67315 4.65446 7.67685C4.65919 7.68055 4.66275 7.68556 4.66468 7.69125C4.66568 7.69955 4.66394 7.70795 4.65973 7.71517C4.65552 7.72239 4.64906 7.72804 4.64134 7.73125C3.94126 8.03741 3.35287 8.5524 2.95668 9.20576C2.56049 9.85912 2.37584 10.6189 2.42801 11.3812C2.43108 11.4025 2.42961 11.4241 2.42369 11.4448C2.41778 11.4654 2.40755 11.4845 2.39368 11.5009C2.37982 11.5173 2.36264 11.5306 2.34327 11.5398C2.32391 11.5491 2.3028 11.5541 2.28134 11.5546L2.25968 11.5512ZM5.61551 3.50792C5.61551 2.57756 5.98509 1.68531 6.64295 1.02744C7.30082 0.369583 8.19307 0 9.12343 0C10.0538 0 10.946 0.369583 11.6039 1.02744C12.2618 1.68531 12.6313 2.57756 12.6313 3.50792C12.6313 4.43827 12.2618 5.33053 11.6039 5.98839C10.946 6.64625 10.0538 7.01583 9.12343 7.01583C8.19307 7.01583 7.30082 6.64625 6.64295 5.98839C5.98509 5.33053 5.61551 4.43827 5.61551 3.50792ZM13.8013 6.51542C13.6664 6.51196 13.5319 6.49888 13.3988 6.47625C13.377 6.47259 13.3565 6.46353 13.3391 6.4499C13.3217 6.43626 13.3079 6.41849 13.2992 6.39819C13.2904 6.37789 13.2868 6.35572 13.2888 6.33369C13.2908 6.31167 13.2982 6.29049 13.3105 6.27208C13.8567 5.45415 14.1422 4.48995 14.1296 3.50651C14.117 2.52308 13.8067 1.56654 13.2397 0.762917C13.229 0.750288 13.2221 0.734925 13.2198 0.718574C13.2174 0.702223 13.2197 0.685539 13.2263 0.670417C13.2433 0.648446 13.2681 0.633829 13.2955 0.629583C13.4896 0.589349 13.6873 0.568967 13.8855 0.56875C14.3416 0.572163 14.7909 0.680235 15.1986 0.884639C15.6064 1.08904 15.9618 1.38432 16.2375 1.74773C16.5131 2.11114 16.7017 2.53298 16.7886 2.98075C16.8755 3.42852 16.8585 3.89026 16.7388 4.33042C16.5742 4.96105 16.2036 5.51861 15.6859 5.91461C15.1682 6.31061 14.5331 6.52236 13.8813 6.51625L13.8013 6.51542ZM1.59218 4.33042C1.47252 3.89026 1.4555 3.42852 1.54243 2.98075C1.62935 2.53298 1.81791 2.11114 2.09356 1.74773C2.36922 1.38432 2.72462 1.08904 3.13239 0.884639C3.54015 0.680235 3.98939 0.572163 4.44551 0.56875C4.644 0.569042 4.84196 0.589424 5.03634 0.629583C5.06334 0.634412 5.08764 0.648932 5.10468 0.670417C5.11177 0.685301 5.11429 0.701956 5.11192 0.718273C5.10955 0.734591 5.10239 0.749837 5.09134 0.762083C4.52417 1.56583 4.21387 2.52259 4.20138 3.50622C4.18888 4.48986 4.47477 5.45419 5.02134 6.27208C5.03362 6.29054 5.04107 6.31179 5.043 6.33387C5.04494 6.35595 5.04131 6.37817 5.03243 6.39848C5.02356 6.4188 5.00974 6.43656 4.99222 6.45015C4.9747 6.46373 4.95406 6.47271 4.93218 6.47625C4.79916 6.49922 4.66463 6.51231 4.52968 6.51542H4.44634C3.79535 6.52053 3.16123 6.30845 2.64429 5.91272C2.12736 5.51698 1.75713 4.96019 1.59218 4.33042Z" fill="#71859E"/>
</svg>
