<svg width="24" height="24" viewBox="0 0 24 24" fill="none" xmlns="http://www.w3.org/2000/svg">
<path d="M12.0062 22.0011C11.2092 22.0038 10.4434 21.6919 9.87519 21.1331L9.14519 20.4011C9.00624 20.2616 8.841 20.1511 8.65906 20.0759C8.47711 20.0007 8.28206 19.9624 8.08519 19.9631H7.05419C6.25595 19.962 5.49071 19.6444 4.92626 19.08C4.36182 18.5155 4.04425 17.7503 4.04319 16.9521V15.9181C4.04164 15.5174 3.88377 15.1331 3.60319 14.8471L2.88319 14.1371C2.31938 13.5724 2.00188 12.8076 2.00001 12.0096C1.99813 11.2117 2.31204 10.4454 2.87319 9.87806L3.60319 9.14606C3.74372 9.00572 3.85497 8.83887 3.9305 8.65519C4.00604 8.47151 4.04434 8.27466 4.04319 8.07606V7.05606C4.04452 6.25818 4.36227 5.4934 4.92674 4.92949C5.49121 4.36558 6.25631 4.04859 7.05419 4.04806H8.08419C8.48179 4.04625 8.86264 3.8878 9.14419 3.60706L9.86419 2.88706C10.4286 2.32119 11.1946 2.00243 11.9938 2.00074C12.7931 1.99905 13.5604 2.31458 14.1272 2.87806L14.8582 3.60706C14.9969 3.74701 15.1621 3.85806 15.344 3.93375C15.526 4.00945 15.7211 4.0483 15.9182 4.04806H16.9482C17.7463 4.04859 18.5115 4.36572 19.076 4.92984C19.6405 5.49397 19.9581 6.259 19.9592 7.05706V8.08806C19.9589 8.28484 19.9978 8.4797 20.0735 8.66133C20.1492 8.84295 20.2603 9.00772 20.4002 9.14606L21.1202 9.86606C21.6808 10.4302 21.997 11.1922 22.0008 11.9875C22.0045 12.7828 21.6954 13.5476 21.1402 14.1171L21.1202 14.1371L21.1102 14.1471L20.4002 14.8571C20.26 14.9959 20.1489 15.1611 20.0732 15.3433C19.9974 15.5254 19.9587 15.7208 19.9592 15.9181V16.9471C19.9584 17.7454 19.6409 18.5108 19.0764 19.0753C18.5119 19.6398 17.7465 19.9573 16.9482 19.9581H15.9182C15.7213 19.9574 15.5263 19.9957 15.3443 20.0709C15.1624 20.1461 14.9972 20.2566 14.8582 20.3961L14.1372 21.1161C13.8585 21.3976 13.5265 21.6208 13.1606 21.7727C12.7948 21.9247 12.4023 22.0023 12.0062 22.0011ZM14.5772 13.7011C14.4037 13.7001 14.2339 13.7507 14.0892 13.8464C13.9445 13.9422 13.8316 14.0788 13.7648 14.2389C13.6979 14.399 13.6802 14.5753 13.7138 14.7455C13.7474 14.9157 13.8308 15.0721 13.9535 15.1948C14.0762 15.3174 14.2325 15.4009 14.4027 15.4345C14.5729 15.4681 14.7493 15.4503 14.9094 15.3835C15.0694 15.3166 15.206 15.2037 15.3018 15.0591C15.3976 14.9144 15.4482 14.7445 15.4472 14.5711C15.4454 14.3411 15.3533 14.121 15.1907 13.9582C15.0282 13.7955 14.8082 13.7032 14.5782 13.7011H14.5772ZM14.5722 8.55706C14.4578 8.55663 14.3445 8.57885 14.2388 8.62245C14.1331 8.66604 14.037 8.73015 13.9562 8.81106L8.81419 13.9511C8.65084 14.1159 8.55919 14.3385 8.55919 14.5706C8.55919 14.8026 8.65084 15.0253 8.81419 15.1901C8.8925 15.273 8.9871 15.339 9.09206 15.3837C9.19703 15.4284 9.3101 15.451 9.42419 15.4501C9.5399 15.4519 9.65473 15.4298 9.76145 15.385C9.86816 15.3403 9.96444 15.2739 10.0442 15.1901L15.1872 10.0511C15.3098 9.92892 15.3935 9.77315 15.4276 9.60345C15.4617 9.43375 15.4447 9.25775 15.3788 9.09771C15.3128 8.93768 15.2009 8.80079 15.0572 8.70437C14.9134 8.60796 14.7443 8.55634 14.5712 8.55606L14.5722 8.55706ZM9.43519 8.55706C9.26167 8.55607 9.09177 8.6067 8.94709 8.70251C8.80242 8.79832 8.68949 8.93499 8.62268 9.09513C8.55586 9.25528 8.53817 9.43168 8.57186 9.6019C8.60554 9.77213 8.68908 9.92849 8.81185 10.0511C8.93462 10.1738 9.09108 10.2571 9.26135 10.2906C9.43161 10.3241 9.60799 10.3062 9.76806 10.2392C9.92813 10.1722 10.0647 10.0591 10.1603 9.91433C10.2559 9.76954 10.3064 9.59958 10.3052 9.42606C10.3034 9.19598 10.2111 8.97586 10.0483 8.81326C9.8855 8.65066 9.66527 8.55863 9.43519 8.55706Z" fill="white"/>
</svg>
