<svg width="60" height="61" viewBox="0 0 60 61" fill="none" xmlns="http://www.w3.org/2000/svg">
<path d="M60 44.5151H0V1.15576H60V44.5151Z" fill="#FFE477"/>
<path d="M60 1.15588H30V44.5153H60V1.15588Z" fill="#FFA733"/>
<path d="M47.5781 38.0698H12.4219V36.312C12.4219 34.6966 11.1076 33.3823 9.49219 33.3823H7.73438V13.4604H9.49219C11.1076 13.4604 12.4219 12.1462 12.4219 10.5308V8.77295H47.5781V10.5308C47.5781 12.1462 48.8924 13.4604 50.5078 13.4604H52.2656V33.3823H50.5078C48.8924 33.3823 47.5781 34.6966 47.5781 36.312V38.0698ZM15.6939 34.5542H44.306C44.9143 32.4107 46.6064 30.7187 48.7499 30.1103V16.7324C46.6064 16.1242 44.9143 14.4321 44.306 12.2886H15.6939C15.0855 14.4321 13.3935 16.1241 11.25 16.7324V30.1103C13.3935 30.7185 15.0855 32.4107 15.6939 34.5542Z" fill="#FF9A00"/>
<path d="M34.6387 21.1137C32.0812 18.6441 27.9196 18.6441 25.3621 21.1137L22.9199 18.5848C26.8241 14.8147 33.1765 14.8147 37.0809 18.5848L34.6387 21.1137Z" fill="#FFF5CC"/>
<path d="M27.5391 24.0074H15V27.5231H27.5391V24.0074Z" fill="#FFF5CC"/>
<path d="M47.5781 10.5308V8.77295H30V12.2886H44.3061C44.9145 14.4321 46.6065 16.1241 48.75 16.7324V30.1103C46.6065 30.7185 44.9145 32.4107 44.3061 34.5542H30V38.0698H47.5781V36.312C47.5781 34.6966 48.8924 33.3823 50.5078 33.3823H52.2656V13.4604H50.5078C48.8924 13.4604 47.5781 12.1462 47.5781 10.5308Z" fill="#E67500"/>
<path d="M34.6383 21.1137L37.0805 18.5848C35.1284 16.6997 32.5642 15.7572 30 15.7572V19.2615C31.6798 19.2616 33.3595 19.8789 34.6383 21.1137Z" fill="#FFDAAA"/>
<path d="M24.9456 59.2622L21.9862 53.9353L16.6592 50.9758L29.4937 38.1414L37.7801 46.4277L24.9456 59.2622Z" fill="#B87FD9"/>
<path d="M49.5855 59.2622L36.751 46.4278L45.0374 38.1415L57.8719 50.976L52.5449 53.9354L49.5855 59.2622Z" fill="#8034AD"/>
<path d="M37.2656 47.4448C31.127 47.4448 26.1328 42.4506 26.1328 36.312C26.1328 30.1734 31.127 25.1792 37.2656 25.1792C43.4043 25.1792 48.3984 30.1734 48.3984 36.312C48.3984 42.4506 43.4043 47.4448 37.2656 47.4448Z" fill="#E3CEF0"/>
<path d="M37.2656 25.1792V47.4448C43.4043 47.4448 48.3984 42.4506 48.3984 36.312C48.3984 30.1734 43.4043 25.1792 37.2656 25.1792Z" fill="#D5B4E8"/>
<path d="M37.2656 41.5854C34.3579 41.5854 31.9922 39.2198 31.9922 36.312C31.9922 33.4042 34.3579 31.0386 37.2656 31.0386C40.1734 31.0386 42.5391 33.4042 42.5391 36.312C42.5391 39.2198 40.1734 41.5854 37.2656 41.5854ZM37.2656 34.5542C36.2964 34.5542 35.5078 35.3428 35.5078 36.312C35.5078 37.2813 36.2964 38.0698 37.2656 38.0698C38.2349 38.0698 39.0234 37.2813 39.0234 36.312C39.0234 35.3428 38.2349 34.5542 37.2656 34.5542Z" fill="#B87FD9"/>
<path d="M39.0234 36.312C39.0234 37.2813 38.2349 38.0698 37.2656 38.0698V41.5854C40.1734 41.5854 42.5391 39.2198 42.5391 36.312C42.5391 33.4042 40.1734 31.0386 37.2656 31.0386V34.5542C38.2349 34.5542 39.0234 35.3426 39.0234 36.312Z" fill="#8034AD"/>
</svg>
