<svg width="205" height="71" viewBox="0 0 205 71" fill="none" xmlns="http://www.w3.org/2000/svg">
<rect y="0.520996" width="205" height="70" rx="10" fill="white"/>
<g clip-path="url(#clip0_1_473)">
<path d="M37.9239 31.7533C35.1359 30.1939 30.661 27.6898 23.7201 23.8035C23.2521 23.4944 22.7137 23.4539 22.2485 23.6114L34.1572 35.52L37.9239 31.7533Z" fill="#32BBFF"/>
<path d="M22.2484 23.6113C22.1612 23.6409 22.0763 23.6765 21.9952 23.7195C21.4815 23.9974 21.104 24.5321 21.104 25.2084V45.8315C21.104 46.5078 21.4814 47.0425 21.9952 47.3203C22.0762 47.3633 22.161 47.3991 22.2481 47.4288L34.157 35.5199L22.2484 23.6113Z" fill="#32BBFF"/>
<path d="M34.1569 35.52L22.248 47.4289C22.7134 47.5875 23.2518 47.5501 23.7199 47.2365C30.451 43.4673 34.8755 40.993 37.6958 39.4203C37.7743 39.3762 37.8512 39.3331 37.9273 39.2904L34.1569 35.52Z" fill="#32BBFF"/>
<path d="M21.104 35.52V45.8316C21.104 46.5079 21.4814 47.0426 21.9952 47.3204C22.0762 47.3634 22.161 47.3992 22.2481 47.4289L34.157 35.52H21.104Z" fill="#2C9FD9"/>
<path d="M23.7198 23.8036C23.1641 23.4366 22.5088 23.4471 21.9951 23.7197L33.9762 35.7008L37.9236 31.7533C35.1356 30.1939 30.6607 27.6899 23.7198 23.8036Z" fill="#29CC5E"/>
<path d="M33.9762 35.3394L21.9951 47.3204C22.5089 47.593 23.1641 47.6087 23.7198 47.2365C30.451 43.4673 34.8755 40.993 37.6957 39.4203C37.7743 39.3762 37.8512 39.3331 37.9272 39.2904L33.9762 35.3394Z" fill="#D93F21"/>
<path d="M42.8961 35.5202C42.8961 34.9488 42.6077 34.3721 42.0363 34.0523C42.0363 34.0523 40.9676 33.456 37.6918 31.6238L33.7954 35.5202L37.6956 39.4204C40.9354 37.6013 42.0362 36.988 42.0362 36.988C42.6077 36.6682 42.8961 36.0916 42.8961 35.5202Z" fill="#FFD500"/>
<path d="M42.0363 36.9879C42.6077 36.6681 42.8961 36.0914 42.8961 35.52H33.7954L37.6956 39.4203C40.9355 37.6012 42.0363 36.9879 42.0363 36.9879Z" fill="#FFAA00"/>
</g>
<path d="M59.768 29.647C58.6853 29.647 57.78 29.4463 57.052 29.045C56.324 28.6437 55.778 28.065 55.414 27.309C55.05 26.553 54.868 25.6477 54.868 24.593C54.868 23.5477 55.0593 22.647 55.442 21.891C55.8247 21.135 56.3753 20.5517 57.094 20.141C57.8127 19.7303 58.6807 19.525 59.698 19.525C60.4167 19.525 61.0373 19.6323 61.56 19.847C62.092 20.0523 62.568 20.3603 62.988 20.771L62.554 21.681C62.246 21.4103 61.9473 21.1957 61.658 21.037C61.378 20.8783 61.084 20.7617 60.776 20.687C60.468 20.603 60.1087 20.561 59.698 20.561C58.5313 20.561 57.6353 20.9157 57.01 21.625C56.394 22.325 56.086 23.319 56.086 24.607C56.086 25.9043 56.3847 26.8983 56.982 27.589C57.5887 28.2797 58.5267 28.625 59.796 28.625C60.2627 28.625 60.706 28.583 61.126 28.499C61.5553 28.4057 61.9707 28.275 62.372 28.107L62.12 28.737V25.265H59.6V24.355H63.114V28.933C62.7127 29.1477 62.204 29.3203 61.588 29.451C60.9813 29.5817 60.3747 29.647 59.768 29.647ZM68.4682 29.647C67.3669 29.647 66.4989 29.3297 65.8642 28.695C65.2296 28.051 64.9122 27.1597 64.9122 26.021C64.9122 25.2837 65.0522 24.6443 65.3322 24.103C65.6122 23.5523 66.0042 23.1277 66.5082 22.829C67.0122 22.521 67.5909 22.367 68.2442 22.367C68.8882 22.367 69.4296 22.5023 69.8682 22.773C70.3069 23.0437 70.6429 23.431 70.8762 23.935C71.1096 24.4297 71.2262 25.0177 71.2262 25.699V26.119H65.7802V25.405H70.4842L70.2462 25.587C70.2462 24.8403 70.0782 24.257 69.7422 23.837C69.4062 23.417 68.9069 23.207 68.2442 23.207C67.5442 23.207 66.9982 23.4543 66.6062 23.949C66.2142 24.4343 66.0182 25.0923 66.0182 25.923V26.049C66.0182 26.9263 66.2329 27.5937 66.6622 28.051C67.1009 28.499 67.7122 28.723 68.4962 28.723C68.9162 28.723 69.3082 28.6623 69.6722 28.541C70.0456 28.4103 70.4002 28.2003 70.7362 27.911L71.1282 28.709C70.8202 29.0077 70.4282 29.241 69.9522 29.409C69.4856 29.5677 68.9909 29.647 68.4682 29.647ZM75.4535 29.647C74.7628 29.647 74.2355 29.451 73.8715 29.059C73.5075 28.6577 73.3255 28.0557 73.3255 27.253V23.375H71.9535V22.493H73.3255V20.575L74.4595 20.253V22.493H76.4755V23.375H74.4595V27.127C74.4595 27.687 74.5528 28.0883 74.7395 28.331C74.9355 28.5643 75.2248 28.681 75.6075 28.681C75.7848 28.681 75.9435 28.667 76.0835 28.639C76.2235 28.6017 76.3495 28.5597 76.4615 28.513V29.465C76.3308 29.521 76.1721 29.563 75.9855 29.591C75.8081 29.6283 75.6308 29.647 75.4535 29.647ZM81.5064 29.521V22.493H82.6404V29.521H81.5064ZM81.3664 20.897V19.623H82.7664V20.897H81.3664ZM84.8423 29.521V24.117C84.8423 23.8557 84.8283 23.5897 84.8003 23.319C84.7817 23.039 84.7583 22.7637 84.7303 22.493H85.8223L85.9623 24.033H85.7943C85.9997 23.4917 86.3263 23.081 86.7743 22.801C87.2317 22.5117 87.759 22.367 88.3563 22.367C89.187 22.367 89.8123 22.591 90.2323 23.039C90.6617 23.4777 90.8763 24.173 90.8763 25.125V29.521H89.7423V25.195C89.7423 24.5323 89.607 24.0517 89.3363 23.753C89.075 23.445 88.6643 23.291 88.1043 23.291C87.451 23.291 86.933 23.4917 86.5503 23.893C86.1677 24.2943 85.9763 24.831 85.9763 25.503V29.521H84.8423ZM61.225 50.708C59.831 50.708 58.6523 50.453 57.689 49.943C56.737 49.433 56.0117 48.719 55.513 47.801C55.0257 46.883 54.782 45.812 54.782 44.588C54.782 43.3187 55.0483 42.2193 55.581 41.29C56.125 40.3493 56.9013 39.624 57.91 39.114C58.9187 38.604 60.1313 38.349 61.548 38.349C62.4207 38.349 63.1913 38.451 63.86 38.655C64.54 38.859 65.1237 39.1537 65.611 39.539L64.642 41.936C64.2907 41.698 63.9563 41.5167 63.639 41.392C63.333 41.256 63.0157 41.1597 62.687 41.103C62.3697 41.0463 62.0013 41.018 61.582 41.018C60.4033 41.018 59.5193 41.324 58.93 41.936C58.352 42.5367 58.063 43.4207 58.063 44.588C58.063 45.744 58.3293 46.6167 58.862 47.206C59.3947 47.7953 60.239 48.09 61.395 48.09C61.7463 48.09 62.126 48.056 62.534 47.988C62.9533 47.92 63.3783 47.818 63.809 47.682L63.248 48.804V45.948H60.766V43.772H65.815V49.773C65.169 50.079 64.4437 50.3113 63.639 50.47C62.8457 50.6287 62.041 50.708 61.225 50.708ZM72.003 50.708C71.0397 50.708 70.2067 50.5267 69.504 50.164C68.8013 49.8013 68.2573 49.2857 67.872 48.617C67.4867 47.937 67.294 47.1323 67.294 46.203C67.294 45.2623 67.4867 44.4577 67.872 43.789C68.2573 43.1203 68.8013 42.6047 69.504 42.242C70.2067 41.8793 71.0397 41.698 72.003 41.698C72.955 41.698 73.7823 41.8793 74.485 42.242C75.1877 42.6047 75.7317 43.126 76.117 43.806C76.5023 44.4747 76.695 45.2737 76.695 46.203C76.695 47.121 76.5023 47.92 76.117 48.6C75.7317 49.28 75.1877 49.8013 74.485 50.164C73.7823 50.5267 72.955 50.708 72.003 50.708ZM72.003 48.464C72.5017 48.464 72.8983 48.2883 73.193 47.937C73.4877 47.5743 73.635 46.9963 73.635 46.203C73.635 45.4097 73.4877 44.8373 73.193 44.486C72.8983 44.1233 72.5017 43.942 72.003 43.942C71.493 43.942 71.0907 44.1233 70.796 44.486C70.5013 44.8373 70.354 45.4097 70.354 46.203C70.354 46.9963 70.5013 47.5743 70.796 47.937C71.0907 48.2883 71.493 48.464 72.003 48.464ZM82.4952 50.708C81.5319 50.708 80.6989 50.5267 79.9962 50.164C79.2935 49.8013 78.7495 49.2857 78.3642 48.617C77.9789 47.937 77.7862 47.1323 77.7862 46.203C77.7862 45.2623 77.9789 44.4577 78.3642 43.789C78.7495 43.1203 79.2935 42.6047 79.9962 42.242C80.6989 41.8793 81.5319 41.698 82.4952 41.698C83.4472 41.698 84.2745 41.8793 84.9772 42.242C85.6799 42.6047 86.2239 43.126 86.6092 43.806C86.9945 44.4747 87.1872 45.2737 87.1872 46.203C87.1872 47.121 86.9945 47.92 86.6092 48.6C86.2239 49.28 85.6799 49.8013 84.9772 50.164C84.2745 50.5267 83.4472 50.708 82.4952 50.708ZM82.4952 48.464C82.9939 48.464 83.3905 48.2883 83.6852 47.937C83.9799 47.5743 84.1272 46.9963 84.1272 46.203C84.1272 45.4097 83.9799 44.8373 83.6852 44.486C83.3905 44.1233 82.9939 43.942 82.4952 43.942C81.9852 43.942 81.5829 44.1233 81.2882 44.486C80.9935 44.8373 80.8462 45.4097 80.8462 46.203C80.8462 46.9963 80.9935 47.5743 81.2882 47.937C81.5829 48.2883 81.9852 48.464 82.4952 48.464ZM92.9024 54.329C92.041 54.329 91.2817 54.2497 90.6244 54.091C89.9784 53.9437 89.3947 53.7113 88.8734 53.394L89.4004 51.252C89.7064 51.4333 90.0407 51.5863 90.4034 51.711C90.766 51.8357 91.14 51.9263 91.5254 51.983C91.922 52.051 92.296 52.085 92.6474 52.085C93.3727 52.085 93.911 51.915 94.2624 51.575C94.6137 51.2463 94.7894 50.776 94.7894 50.164V48.651H94.9594C94.778 49.1497 94.421 49.552 93.8884 49.858C93.3557 50.1527 92.7664 50.3 92.1204 50.3C91.3497 50.3 90.6754 50.13 90.0974 49.79C89.5307 49.4387 89.083 48.94 88.7544 48.294C88.437 47.648 88.2784 46.883 88.2784 45.999C88.2784 45.115 88.437 44.35 88.7544 43.704C89.083 43.058 89.5307 42.565 90.0974 42.225C90.6754 41.8737 91.3497 41.698 92.1204 41.698C92.789 41.698 93.3784 41.8453 93.8884 42.14C94.3984 42.4347 94.744 42.8257 94.9254 43.313L94.7894 43.279L94.9764 41.885H97.8834C97.838 42.2703 97.804 42.6613 97.7814 43.058C97.7587 43.4547 97.7474 43.8457 97.7474 44.231V49.824C97.7474 51.2747 97.3337 52.3853 96.5064 53.156C95.679 53.938 94.4777 54.329 92.9024 54.329ZM93.0554 48.056C93.5767 48.056 93.9904 47.8803 94.2964 47.529C94.6024 47.1777 94.7554 46.6677 94.7554 45.999C94.7554 45.319 94.6024 44.809 94.2964 44.469C93.9904 44.1177 93.5767 43.942 93.0554 43.942C92.5227 43.942 92.1034 44.1177 91.7974 44.469C91.4914 44.809 91.3384 45.319 91.3384 45.999C91.3384 46.6677 91.4914 47.1777 91.7974 47.529C92.1034 47.8803 92.5227 48.056 93.0554 48.056ZM99.6098 50.521V38.009H102.636V50.521H99.6098ZM109.063 50.708C107.499 50.708 106.281 50.3057 105.408 49.501C104.547 48.6963 104.116 47.5913 104.116 46.186C104.116 45.3133 104.298 44.537 104.66 43.857C105.023 43.177 105.533 42.65 106.19 42.276C106.848 41.8907 107.618 41.698 108.502 41.698C109.375 41.698 110.1 41.8907 110.678 42.276C111.268 42.65 111.71 43.1713 112.004 43.84C112.299 44.4973 112.446 45.2623 112.446 46.135V46.781H106.649V45.353H110.219L109.93 45.591C109.93 44.945 109.806 44.469 109.556 44.163C109.318 43.8457 108.978 43.687 108.536 43.687C108.026 43.687 107.635 43.8797 107.363 44.265C107.103 44.639 106.972 45.2057 106.972 45.965V46.271C106.972 47.0303 107.159 47.5857 107.533 47.937C107.907 48.2883 108.446 48.464 109.148 48.464C109.602 48.464 110.027 48.413 110.423 48.311C110.831 48.209 111.217 48.0447 111.579 47.818L112.361 49.79C111.931 50.0847 111.432 50.3113 110.865 50.47C110.299 50.6287 109.698 50.708 109.063 50.708ZM118.971 50.521V38.536H124.853C126.236 38.536 127.279 38.876 127.981 39.556C128.684 40.2247 129.035 41.137 129.035 42.293C129.035 43.4377 128.684 44.35 127.981 45.03C127.279 45.71 126.236 46.05 124.853 46.05H122.116V50.521H118.971ZM122.116 43.636H124.445C124.978 43.636 125.375 43.5227 125.635 43.296C125.896 43.058 126.026 42.7237 126.026 42.293C126.026 41.8623 125.896 41.528 125.635 41.29C125.375 41.052 124.978 40.933 124.445 40.933H122.116V43.636ZM130.422 50.521V38.009H133.448V50.521H130.422ZM138.72 50.708C137.972 50.708 137.314 50.5323 136.748 50.181C136.181 49.8183 135.733 49.297 135.405 48.617C135.087 47.937 134.929 47.1323 134.929 46.203C134.929 45.2623 135.087 44.4577 135.405 43.789C135.733 43.109 136.181 42.5933 136.748 42.242C137.314 41.8793 137.972 41.698 138.72 41.698C139.388 41.698 139.989 41.8567 140.522 42.174C141.066 42.4913 141.423 42.905 141.593 43.415H141.423L141.61 41.885H144.517C144.483 42.2703 144.449 42.6613 144.415 43.058C144.392 43.4547 144.381 43.8457 144.381 44.231V50.521H141.389L141.355 49.059H141.559C141.389 49.5577 141.032 49.96 140.488 50.266C139.955 50.5607 139.366 50.708 138.72 50.708ZM139.689 48.464C140.199 48.464 140.612 48.2883 140.93 47.937C141.247 47.5743 141.406 46.9963 141.406 46.203C141.406 45.4097 141.247 44.8373 140.93 44.486C140.612 44.1233 140.199 43.942 139.689 43.942C139.179 43.942 138.765 44.1233 138.448 44.486C138.13 44.8373 137.972 45.4097 137.972 46.203C137.972 46.9963 138.125 47.5743 138.431 47.937C138.748 48.2883 139.167 48.464 139.689 48.464ZM146.211 54.38L145.497 52.034C146.041 51.932 146.495 51.8187 146.857 51.694C147.231 51.5807 147.537 51.422 147.775 51.218C148.013 51.014 148.2 50.7477 148.336 50.419L148.761 49.433L148.693 50.572L144.919 41.885H148.115L150.325 47.614H149.764L152.042 41.885H155.034L151.158 50.708C150.852 51.3993 150.524 51.966 150.172 52.408C149.832 52.85 149.458 53.2013 149.05 53.462C148.654 53.7227 148.217 53.9153 147.741 54.04C147.277 54.176 146.767 54.2893 146.211 54.38Z" fill="black"/>
<defs>
<clipPath id="clip0_1_473">
<rect width="24" height="24" fill="white" transform="translate(20 23.521)"/>
</clipPath>
</defs>
</svg>
