<svg width="60" height="61" viewBox="0 0 60 61" fill="none" xmlns="http://www.w3.org/2000/svg">
<g clip-path="url(#clip0_122_7310)">
<path d="M20.8918 8.48132H14.19C13.9724 8.48132 13.7638 8.56769 13.61 8.72156L3.01855 19.313C2.86469 19.4668 2.77832 19.6754 2.77832 19.893V59.33C2.77832 59.7831 3.14559 60.1503 3.59863 60.1503H24.9245L32.3036 40.9462V19.893C32.3036 19.6754 32.2172 19.4668 32.0634 19.313L21.472 8.72156C21.318 8.56781 21.1093 8.48132 20.8918 8.48132ZM17.5409 23.2439C15.5027 23.2439 13.8502 21.5916 13.8502 19.5532C13.8502 17.5148 15.5025 15.8625 17.5409 15.8625C19.5793 15.8625 21.2316 17.5148 21.2316 19.5532C21.2316 21.5916 19.5791 23.2439 17.5409 23.2439Z" fill="#FEE97E"/>
<path d="M13.6104 8.72204L3.01867 19.3127C2.8648 19.4666 2.77832 19.6752 2.77832 19.8928V59.3304C2.77832 59.7835 3.14559 60.1507 3.59863 60.1507H6.46867V19.8927C6.46867 19.6751 6.55516 19.4665 6.70902 19.3126L17.541 8.48169H14.1904C13.9729 8.48181 13.7642 8.56817 13.6104 8.72204Z" fill="#F9DA58"/>
<path d="M27.7933 56.4598H7.29004C6.83699 56.4598 6.46973 56.0926 6.46973 55.6395V27.755C6.46973 27.302 6.83699 26.9347 7.29004 26.9347H27.7933C28.2463 26.9347 28.6136 27.302 28.6136 27.755V55.6395C28.6136 56.0926 28.2463 56.4598 27.7933 56.4598Z" fill="#FFB952"/>
<path d="M52.2368 54.4944H53.2041C54.2725 54.4944 55.1386 55.3605 55.1386 56.4289C55.1386 57.4973 54.2725 58.3635 53.2041 58.3635H41.062C40.5375 58.3635 40.0217 58.2012 39.6068 57.8805C38.5086 57.0316 37.3469 56.8527 35.9336 56.7688L34.7617 55.3854V45.8648L35.9336 44.4668C39.2447 40.6836 43.4414 40.3311 43.1399 34.6685C43.0877 33.6872 43.831 32.8854 44.8137 32.8854H44.8476C45.6005 32.8854 46.2644 33.3785 46.4837 34.0987C47.2648 36.664 47.5279 39.2122 46.774 41.8356C46.6229 42.3616 47.0131 42.8866 47.5604 42.8866H55.2868C56.3552 42.8866 57.2213 43.7528 57.2213 44.8212C57.2213 45.8896 56.3552 46.7557 55.2868 46.7557H52.8801H54.6317C55.7001 46.7557 56.5662 47.6218 56.5662 48.6902C56.5662 49.7586 55.7001 50.6248 54.6317 50.6248H52.8801H53.9886C55.057 50.6248 55.9231 51.4909 55.9231 52.5593C55.9231 53.6277 55.057 54.4938 53.9886 54.4938H52.2368V54.4944Z" fill="#FFCEBF"/>
<path d="M45.5172 34.6838C45.7957 40.0451 42.0324 40.6377 38.8204 43.916C38.4934 44.2497 38.3099 44.6987 38.3099 45.1658V55.1957C38.3099 56.0461 38.9193 56.7727 39.756 56.9249C40.5508 57.0695 41.272 57.3358 41.9671 57.8692C42.3817 58.1864 42.888 58.3635 43.4107 58.3635H41.0343C40.5115 58.3635 40.0054 58.1864 39.5907 57.8692C38.4975 57.0304 37.3403 56.8521 35.9336 56.7689L34.7617 55.3855V45.865L35.9336 44.4669C39.2414 40.6874 43.4344 40.3322 43.1409 34.6838C43.0898 33.706 43.8692 32.8861 44.847 32.8861C45.2213 32.8861 45.5753 33.0073 45.8629 33.2176C45.9247 33.2628 45.9829 33.3127 46.0375 33.3661C45.6941 33.6953 45.4899 34.1681 45.5172 34.6838Z" fill="#FFB09E"/>
<path d="M53.9888 51.5164H52.8803C52.3882 51.5164 51.9893 51.1175 51.9893 50.6253C51.9893 50.1332 52.3882 49.7343 52.8803 49.7343H53.9888C54.481 49.7343 54.8799 50.1332 54.8799 50.6253C54.8799 51.1175 54.481 51.5164 53.9888 51.5164Z" fill="#FFB09E"/>
<path d="M54.632 47.6472H52.8803C52.3882 47.6472 51.9893 47.2483 51.9893 46.7561C51.9893 46.2639 52.3882 45.865 52.8803 45.865H54.632C55.1241 45.865 55.523 46.2639 55.523 46.7561C55.523 47.2483 55.1241 47.6472 54.632 47.6472Z" fill="#FFB09E"/>
<path d="M53.2041 55.3855H52.2368C51.7446 55.3855 51.3457 54.9866 51.3457 54.4944C51.3457 54.0022 51.7446 53.6033 52.2368 53.6033H53.2041C53.6963 53.6033 54.0952 54.0022 54.0952 54.4944C54.0952 54.9866 53.6963 55.3855 53.2041 55.3855Z" fill="#FFB09E"/>
<path d="M32.2383 58.3636H35.113C35.5661 58.3636 35.9333 57.9963 35.9333 57.5433V43.7019C35.9333 43.2489 35.5661 42.8816 35.113 42.8816H32.2383L31.0664 44.2324V57.0058L32.2383 58.3636Z" fill="#F5FCFF"/>
<path d="M34.6145 42.8822V58.3637H32.2383L31.0664 57.0059V44.2324L32.2383 42.8822H34.6145Z" fill="#D8ECFE"/>
<path d="M24.9248 40.9464H32.3016V59.3887C32.3016 59.8417 31.9344 60.209 31.4813 60.209H24.9248V40.9464Z" fill="#8CBDF9"/>
<path d="M24.9248 40.9467H27.3011V60.2089H24.9248V40.9467Z" fill="#73A2DA"/>
<path d="M28.6157 46.3375C28.1235 46.3375 27.7246 45.9385 27.7246 45.4464C27.7246 44.9542 28.1236 44.5553 28.6157 44.5553C29.1079 44.5553 29.5068 44.9542 29.5068 45.4464C29.5068 45.9385 29.1078 46.3375 28.6157 46.3375Z" fill="#5680A6"/>
<path d="M17.5415 20.4445C17.0493 20.4445 16.6504 20.0455 16.6504 19.5534V1.10008C16.6504 0.607891 17.0494 0.208984 17.5415 0.208984C18.0336 0.208984 18.4326 0.607891 18.4326 1.10008V19.5534C18.4326 20.0455 18.0337 20.4445 17.5415 20.4445Z" fill="#5680A6"/>
<path d="M21.0188 39.8519C21.0188 38.343 19.7912 37.1155 18.2823 37.1155H17.2687C16.7425 37.1155 16.3144 36.6874 16.3144 36.1613C16.3144 35.6352 16.7425 35.2071 17.2687 35.2071H18.1743C18.5196 35.2071 18.8184 35.4293 18.9176 35.7601C19.0589 36.2315 19.5557 36.4988 20.0271 36.3576C20.4985 36.2163 20.7661 35.7194 20.6247 35.2481C20.3459 34.3187 19.5889 33.651 18.6666 33.4734V32.37C18.6666 31.8778 18.2676 31.4789 17.7755 31.4789C17.2834 31.4789 16.8844 31.8778 16.8844 32.37V33.4523C15.5569 33.6398 14.5322 34.7829 14.5322 36.1612C14.5322 37.6701 15.7598 38.8976 17.2687 38.8976H18.2823C18.8085 38.8976 19.2365 39.3256 19.2365 39.8518C19.2365 40.378 18.8084 40.8061 18.2823 40.8061H17.1391C16.7936 40.8061 16.4949 40.5838 16.3956 40.2529C16.2543 39.7815 15.7574 39.5138 15.286 39.6555C14.8146 39.797 14.5471 40.2937 14.6886 40.7652C14.991 41.7733 15.8559 42.4742 16.8843 42.5747V43.6432C16.8843 44.1354 17.2833 44.5343 17.7754 44.5343C18.2675 44.5343 18.6665 44.1354 18.6665 43.6432V42.5608C19.9942 42.3733 21.0188 41.2303 21.0188 39.8519Z" fill="#5680A6"/>
<path d="M21.4657 53.6602H14.0845C13.5923 53.6602 13.1934 53.2613 13.1934 52.7691C13.1934 52.277 13.5924 51.8781 14.0845 51.8781H21.4657C21.9579 51.8781 22.3568 52.277 22.3568 52.7691C22.3568 53.2613 21.9579 53.6602 21.4657 53.6602Z" fill="#5680A6"/>
<path d="M21.4657 49.9732H14.0845C13.5923 49.9732 13.1934 49.5743 13.1934 49.0821C13.1934 48.5899 13.5924 48.191 14.0845 48.191H21.4657C21.9579 48.191 22.3568 48.5899 22.3568 49.0821C22.3568 49.5743 21.9579 49.9732 21.4657 49.9732Z" fill="#5680A6"/>
</g>
<defs>
<clipPath id="clip0_122_7310">
<rect width="60" height="60" fill="white" transform="translate(0 0.208984)"/>
</clipPath>
</defs>
</svg>
