<svg width="30" height="30" viewBox="0 0 30 30" fill="none" xmlns="http://www.w3.org/2000/svg">
<path d="M14.9999 0.833496C12.198 0.833496 9.45904 1.66436 7.12935 3.22101C4.79965 4.77766 2.98387 6.99019 1.91163 9.57881C0.83939 12.1674 0.558843 15.0159 1.10547 17.7639C1.65209 20.512 3.00134 23.0363 4.98258 25.0175C6.96382 26.9988 9.48808 28.348 12.2361 28.8946C14.9842 29.4412 17.8327 29.1607 20.4213 28.0885C23.0099 27.0162 25.2224 25.2004 26.7791 22.8707C28.3357 20.541 29.1666 17.8021 29.1666 15.0002C29.1606 11.2448 27.6661 7.6449 25.0107 4.98944C22.3552 2.33397 18.7553 0.83949 14.9999 0.833496ZM21.1624 20.0577C21.0687 20.2184 20.9341 20.3514 20.7724 20.4435C20.6108 20.5355 20.4276 20.5832 20.2416 20.5818C20.0506 20.5853 19.8629 20.5309 19.7033 20.426L15.3116 17.8052C14.7506 17.4406 14.2853 16.9467 13.955 16.3648C13.6246 15.783 13.4388 15.1304 13.4133 14.4618V8.6535C13.4133 8.3717 13.5252 8.10145 13.7245 7.90219C13.9237 7.70294 14.194 7.591 14.4758 7.591C14.7576 7.591 15.0278 7.70294 15.2271 7.90219C15.4263 8.10145 15.5383 8.3717 15.5383 8.6535V14.4618C15.5648 14.7618 15.6558 15.0525 15.8049 15.3141C15.9541 15.5756 16.1579 15.802 16.4024 15.9777L20.7941 18.5985C20.9157 18.6686 21.022 18.7624 21.1066 18.8743C21.1913 18.9863 21.2526 19.1141 21.287 19.2501C21.3213 19.3862 21.328 19.5278 21.3066 19.6665C21.2852 19.8053 21.2362 19.9383 21.1624 20.0577Z" fill="#F3AE1C"/>
</svg>
