<svg width="24" height="24" viewBox="0 0 24 24" fill="none" xmlns="http://www.w3.org/2000/svg">
<path d="M20.82 21.859L20.737 21.789L17.609 18.739C15.8964 20.0787 13.7834 20.8042 11.609 20.799C9.08943 20.8233 6.66304 19.8475 4.86178 18.0856C3.06052 16.3237 2.03139 13.9195 2 11.4C2.03112 8.87997 3.06042 6.47517 4.86214 4.713C6.66386 2.95083 9.09092 1.97517 11.611 1.99998C14.1313 1.9749 16.5586 2.95045 18.3605 4.71265C20.1624 6.47484 21.1919 8.8798 21.223 11.4C21.2208 13.7618 20.3153 16.0334 18.692 17.749L21.783 20.763C21.8516 20.8295 21.9061 20.909 21.9434 20.997C21.9806 21.0849 21.9998 21.1795 21.9998 21.275C21.9998 21.3705 21.9806 21.465 21.9434 21.553C21.9061 21.6409 21.8516 21.7205 21.783 21.787C21.6562 21.9101 21.4901 21.9846 21.3139 21.9976C21.1377 22.0106 20.9625 21.9611 20.819 21.858L20.82 21.859ZM3.48 11.4C3.50637 13.5319 4.3772 15.5663 5.90148 17.057C7.42576 18.5477 9.47904 19.3731 11.611 19.352C13.7431 19.3733 15.7967 18.5481 17.3212 17.0574C18.8457 15.5666 19.7166 13.5321 19.743 11.4C19.7166 9.26791 18.8457 7.23335 17.3212 5.7426C15.7967 4.25185 13.7431 3.42664 11.611 3.44798C9.47904 3.4269 7.42576 4.25223 5.90148 5.74295C4.3772 7.23368 3.50637 9.26809 3.48 11.4Z" fill="#200E32"/>
</svg>
