<svg width="60" height="61" viewBox="0 0 60 61" fill="none" xmlns="http://www.w3.org/2000/svg">
<path d="M11.0942 50.8465C10.4715 51.7091 10.2055 52.7787 10.3517 53.8324C10.4979 54.8862 11.045 55.843 11.879 56.5035C12.713 57.1639 13.7697 57.4772 14.829 57.378C15.8882 57.2788 16.8683 56.7748 17.5652 55.9709L24.6648 46.6468L17.9126 40.4574L11.0942 50.8465Z" fill="#FEB784"/>
<path d="M52.3576 33.269L44.0621 32.084V28.334H34.6871V32.084L24.572 34.252C22.6433 34.6651 20.955 35.8214 19.8728 37.4704L17.9121 40.4579L24.6643 46.6472L27.1871 43.334H29.0621V57.3965H49.6871V46.1465H57.1871V38.8375C57.1872 37.4835 56.6987 36.1749 55.8116 35.152C54.9244 34.129 53.698 33.4605 52.3576 33.269Z" fill="#FEC9A3"/>
<path d="M40.0816 32.084C41.4904 32.0834 42.8703 31.6849 44.0625 30.9344V28.334H34.6875V30.9344C35.8797 31.6849 37.2596 32.0834 38.6684 32.084H40.0816Z" fill="#FEB784"/>
<path d="M52.3576 33.269L44.0621 32.084C44.0621 33.3272 43.5683 34.5195 42.6892 35.3985C41.8101 36.2776 40.6178 36.7715 39.3746 36.7715C38.1314 36.7715 36.9392 36.2776 36.0601 35.3985C35.181 34.5195 34.6871 33.3272 34.6871 32.084L24.572 34.252C22.6433 34.6651 20.955 35.8214 19.8728 37.4704L17.9121 40.4579L24.6643 46.6472L27.1871 43.334H29.0621V57.3965H49.6871V46.1465H57.1871V38.8375C57.1872 37.4835 56.6987 36.1749 55.8116 35.152C54.9244 34.129 53.698 33.4605 52.3576 33.269Z" fill="#E0E0DE"/>
<path d="M48.75 15.209H47.8125V20.834H48.75C49.4959 20.834 50.2113 20.5377 50.7387 20.0102C51.2662 19.4828 51.5625 18.7674 51.5625 18.0215C51.5625 17.2756 51.2662 16.5602 50.7387 16.0327C50.2113 15.5053 49.4959 15.209 48.75 15.209Z" fill="#FEB784"/>
<path d="M30.0469 15.209H30C29.2541 15.209 28.5387 15.5053 28.0113 16.0327C27.4838 16.5602 27.1875 17.2756 27.1875 18.0215C27.1875 18.7674 27.4838 19.4828 28.0113 20.0102C28.5387 20.5377 29.2541 20.834 30 20.834H30.9375V15.209H30.0469Z" fill="#FEB784"/>
<path d="M47.8125 14.2715V20.834C47.8127 22.0792 47.66 23.3197 47.3578 24.5277C46.952 26.1504 46.0156 27.5909 44.6972 28.6203C43.3789 29.6496 41.7543 30.2088 40.0816 30.209H38.6684C36.9957 30.209 35.371 29.6499 34.0526 28.6205C32.7343 27.5911 31.7978 26.1505 31.3922 24.5277C31.0896 23.3198 30.9369 22.0792 30.9375 20.834V14.2715C30.9378 12.0618 31.8048 9.94034 33.3522 8.36291C34.8996 6.78547 37.004 5.8779 39.2133 5.83516C39.2672 5.83398 39.3211 5.83398 39.375 5.83398C41.6127 5.83417 43.7587 6.72318 45.341 8.30548C46.9233 9.88777 47.8123 12.0338 47.8125 14.2715Z" fill="#FEC9A3"/>
<path d="M47.8125 14.2715C47.8125 14.2216 47.8058 14.1732 47.805 14.1234H30.945C30.9442 14.1732 30.9375 14.2216 30.9375 14.2715V17.5927C31.5206 17.9594 32.2186 18.0976 32.8973 17.9809L35.4684 17.5528C37.9175 17.1446 40.4173 17.1446 42.8664 17.5528L45.4375 17.9812C45.8607 18.0543 46.295 18.029 46.7068 17.9073C47.1187 17.7856 47.497 17.5708 47.8125 17.2794V14.2715Z" fill="#FEC093"/>
<path d="M47.8127 14.2715V20.834C47.8129 22.0792 47.6602 23.3197 47.358 24.5277C46.9522 26.1504 46.0158 27.5909 44.6974 28.6203C43.379 29.6496 41.7545 30.2088 40.0818 30.209H39.21C40.5652 29.2587 41.6713 27.9956 42.4345 26.5267C43.1977 25.0579 43.5954 23.4267 43.5939 21.7715V14.2715C43.5925 12.6173 43.1938 10.9877 42.4315 9.51963C41.6693 8.05157 40.5656 6.78799 39.2135 5.83516C39.2674 5.83398 39.3213 5.83398 39.3752 5.83398C41.6129 5.83417 43.7589 6.72318 45.3412 8.30548C46.9235 9.88777 47.8125 12.0338 47.8127 14.2715Z" fill="#FEC093"/>
<path d="M35.3672 10.6571C38.0129 11.1863 40.7371 11.1863 43.3828 10.6571L44.0625 10.5215L47.8125 14.8964V14.2715C47.8125 12.0337 46.9236 9.88761 45.3412 8.30527C43.7589 6.72293 41.6128 5.83398 39.375 5.83398C37.1372 5.83398 34.9911 6.72293 33.4088 8.30527C31.8264 9.88761 30.9375 12.0337 30.9375 14.2715V14.8962L34.6875 10.5215L35.3672 10.6571Z" fill="#7A432A"/>
<path d="M35.1562 18.959C35.9329 18.959 36.5625 18.3294 36.5625 17.5527C36.5625 16.7761 35.9329 16.1465 35.1562 16.1465C34.3796 16.1465 33.75 16.7761 33.75 17.5527C33.75 18.3294 34.3796 18.959 35.1562 18.959Z" fill="#7A432A"/>
<path d="M43.5938 18.959C44.3704 18.959 45 18.3294 45 17.5527C45 16.7761 44.3704 16.1465 43.5938 16.1465C42.8171 16.1465 42.1875 16.7761 42.1875 17.5527C42.1875 18.3294 42.8171 18.959 43.5938 18.959Z" fill="#7A432A"/>
<path d="M49.6875 57.3965H29.0625V47.084V43.334H49.6875V57.3965Z" fill="#348FD9"/>
<path d="M32.3438 57.3965H49.6875V43.334H46.4062L32.3438 57.3965Z" fill="#3086CD"/>
<path d="M31.875 46.1465H33.75V48.0215H31.875V46.1465Z" fill="#62A9E6"/>
<path d="M45 46.1465H46.875V48.0215H45V46.1465Z" fill="#62A9E6"/>
<path d="M33.75 43.3339V32.2848L29.0625 33.2893V43.3339H33.75Z" fill="#2D7DBF"/>
<path d="M49.6875 43.334V32.8875L45 32.2179V43.334H49.6875Z" fill="#2D7DBF"/>
<path d="M49.6875 46.1465H57.1875V57.3965H49.6875V46.1465Z" fill="#FEC9A3"/>
<path d="M14.0625 57.3965C13.0679 57.3965 12.1141 57.0014 11.4108 56.2981C10.7076 55.5949 10.3125 54.641 10.3125 53.6465V38.6465H17.8125V53.6465C17.8125 54.641 17.4174 55.5949 16.7141 56.2981C16.0109 57.0014 15.0571 57.3965 14.0625 57.3965Z" fill="#FEC9A3"/>
<path d="M13.125 28.334H18.75V45.209H13.125V28.334Z" fill="#F98500"/>
<path d="M17.8125 32.084H12.1875C11.152 32.084 10.3125 32.9235 10.3125 33.959V39.584C10.3125 40.6195 11.152 41.459 12.1875 41.459H17.8125C18.848 41.459 19.6875 40.6195 19.6875 39.584V33.959C19.6875 32.9235 18.848 32.084 17.8125 32.084Z" fill="#FEC9A3"/>
<path d="M17.8125 32.084H14.0625C14.5598 32.084 15.0367 32.2815 15.3883 32.6332C15.74 32.9848 15.9375 33.4617 15.9375 33.959V39.584C15.9375 40.0813 15.74 40.5582 15.3883 40.9098C15.0367 41.2614 14.5598 41.459 14.0625 41.459H17.8125C18.3098 41.459 18.7867 41.2614 19.1383 40.9098C19.49 40.5582 19.6875 40.0813 19.6875 39.584V33.959C19.6875 33.4617 19.49 32.9848 19.1383 32.6332C18.7867 32.2815 18.3098 32.084 17.8125 32.084Z" fill="#FEC093"/>
<path d="M6.5625 12.3965H25.3125V19.8965H6.5625V12.3965Z" fill="#E0E0DE"/>
<path d="M16.875 28.334H15V25.397L3.48445 23.752C3.03849 23.6863 2.63084 23.463 2.33553 23.1224C2.04022 22.7819 1.87682 22.3467 1.875 21.8959V17.084C1.8755 16.5869 2.0732 16.1102 2.42472 15.7587C2.77625 15.4072 3.25287 15.2095 3.75 15.209H6.5625V17.084H3.75V21.8959L15.2655 23.5413C15.7115 23.6069 16.1191 23.8302 16.4144 24.1707C16.7097 24.5112 16.8731 24.9463 16.875 25.397V28.334Z" fill="#C7C7C5"/>
<path d="M32.8125 50.834H45.9375V57.3965H32.8125V50.834Z" fill="#62A9E6"/>
<path d="M38.5982 23.6465H37.5V21.7715H38.5982C39.6915 21.7783 40.7675 21.4983 41.7188 20.9594L42.6562 22.5836C41.4199 23.287 40.0206 23.6535 38.5982 23.6465Z" fill="#F7A468"/>
<path d="M48.7504 13.3105C48.7487 13.7228 48.6574 14.1297 48.483 14.5033C48.3085 14.8768 48.055 15.208 47.7399 15.4739C47.4249 15.7398 47.0558 15.9341 46.6583 16.0433C46.2607 16.1526 45.8442 16.1742 45.4375 16.1066L42.8664 15.6777C40.4176 15.2703 37.9183 15.2703 35.4695 15.6777L32.8984 16.1066C32.4012 16.1895 31.8909 16.1386 31.4199 15.9592C30.9488 15.7797 30.534 15.4782 30.2179 15.0856C29.9018 14.6929 29.6959 14.2232 29.6212 13.7247C29.5465 13.2262 29.6058 12.7168 29.793 12.2488H48.543C48.6792 12.5862 48.7496 12.9466 48.7504 13.3105Z" fill="#348FD9"/>
<path d="M48.543 8.49854V12.2485H29.793V8.49854C29.793 7.00669 30.3856 5.57595 31.4405 4.52106C32.4954 3.46617 33.9261 2.87354 35.418 2.87354H42.918C43.5226 2.87336 44.1233 2.97071 44.6969 3.16182C44.8012 3.19697 44.9043 3.23447 45.0051 3.27549C46.0495 3.69245 46.9449 4.41302 47.5755 5.3441C48.2062 6.27517 48.5432 7.37397 48.543 8.49854Z" fill="#3086CD"/>
<path d="M48.543 8.49844V12.2484H32.6055C38.2305 10.3734 42.1668 7.08867 45.0051 3.27539C46.0495 3.69236 46.9449 4.41292 47.5755 5.344C48.2062 6.27507 48.5432 7.37387 48.543 8.49844Z" fill="#2D7DBF"/>
<path d="M48.7496 13.3105C48.7479 13.7228 48.6567 14.1297 48.4822 14.5033C48.3077 14.8768 48.0542 15.208 47.7391 15.4739C47.4241 15.7398 47.055 15.9341 46.6575 16.0433C46.2599 16.1526 45.8434 16.1742 45.4367 16.1066L42.8656 15.6777C42.0695 15.545 41.2667 15.4554 40.4609 15.4093C42.4344 14.5785 44.0539 13.546 45.2434 12.2488H48.5422C48.6784 12.5862 48.7488 12.9466 48.7496 13.3105Z" fill="#3086CD"/>
<path d="M49.6875 46.1465H57.1875V48.959H49.6875V46.1465Z" fill="#FEC093"/>
<path d="M6.5625 19.8965H25.3125V13.2864C19.4704 15.9274 11.9009 17.0984 6.5625 17.6143V19.8965Z" fill="#D6D6D4"/>
<path d="M6.5625 12.3965H18.75V15.209H6.5625V12.3965Z" fill="#348FD9"/>
<path d="M17.8125 12.3965V19.8965C17.8125 20.3938 18.01 20.8707 18.3617 21.2223C18.7133 21.5739 19.1902 21.7715 19.6875 21.7715C20.1848 21.7715 20.6617 21.5739 21.0133 21.2223C21.365 20.8707 21.5625 20.3938 21.5625 19.8965V23.6465C21.5625 24.1438 21.76 24.6207 22.1117 24.9723C22.4633 25.3239 22.9402 25.5215 23.4375 25.5215C23.9348 25.5215 24.4117 25.3239 24.7633 24.9723C25.115 24.6207 25.3125 24.1438 25.3125 23.6465V12.3965H17.8125Z" fill="#348FD9"/>
</svg>
