<svg width="23" height="19" viewBox="0 0 23 19" fill="none" xmlns="http://www.w3.org/2000/svg">
<path d="M20.3025 4.98889C20.3169 5.18961 20.3169 5.39037 20.3169 5.59111C20.3169 11.7135 15.6505 18.7679 7.12168 18.7679C4.49412 18.7679 2.05323 18.0079 0 16.6888C0.373327 16.7318 0.732247 16.7461 1.11994 16.7461C3.288 16.7461 5.28382 16.015 6.87758 14.7675C4.83871 14.7245 3.13008 13.3911 2.54138 11.5558C2.82857 11.5988 3.11571 11.6274 3.41727 11.6274C3.83364 11.6274 4.25006 11.5701 4.63771 11.4697C2.5127 11.0396 0.918888 9.17563 0.918888 6.92455V6.86721C1.53627 7.21133 2.25423 7.4264 3.01517 7.45504C1.76601 6.62341 0.947616 5.20395 0.947616 3.59808C0.947616 2.73779 1.1773 1.94921 1.57936 1.26097C3.86232 4.07125 7.29396 5.90649 11.1419 6.10726C11.0701 5.76314 11.0271 5.40472 11.0271 5.04626C11.0271 2.49404 13.0947 0.415039 15.6648 0.415039C17.0001 0.415039 18.2062 0.974228 19.0533 1.87752C20.1014 1.6768 21.1065 1.28966 21.9967 0.759149C21.6521 1.83454 20.9198 2.73784 19.9579 3.31133C20.8911 3.21101 21.7958 2.95287 22.6284 2.59444C21.9969 3.51205 21.2071 4.32929 20.3025 4.98889Z" fill="white"/>
</svg>
