<svg width="60" height="61" viewBox="0 0 60 61" fill="none" xmlns="http://www.w3.org/2000/svg">
<g clip-path="url(#clip0_122_7338)">
<path d="M4 0.208984H60V40.209H4V0.208984Z" fill="#5789D6"/>
<path d="M24 47.209V60.209L28 56.209L32 60.209V47.209" fill="#CA5057"/>
<path d="M26 56.209L27 57.209L28 56.209L30 58.209V47.209H24V58.209L26 56.209Z" fill="#DC6068"/>
<path d="M0 4.20898H56V44.209H0V4.20898Z" fill="#699CE6"/>
<path d="M18 40.209H10C10 36.895 7.31396 34.209 4 34.209V14.209C7.31396 14.209 10 11.5229 10 8.20898H46C46 11.5229 48.686 14.209 52 14.209V34.209C48.686 34.209 46 36.895 46 40.209H38" fill="#D9D7D8"/>
<path d="M38 38.209C38 43.7319 33.5229 48.209 28 48.209C22.4771 48.209 18 43.7319 18 38.209C18 32.686 22.4771 28.209 28 28.209C33.5229 28.209 38 32.686 38 38.209Z" fill="#EEBC5A"/>
<path d="M34 38.209C34 41.5225 31.3135 44.209 28 44.209C24.6865 44.209 22 41.5225 22 38.209C22 34.8955 24.6865 32.209 28 32.209C31.3135 32.209 34 34.8955 34 38.209Z" fill="#F8CF6A"/>
<path d="M14 12.209H42V16.209H14V12.209Z" fill="#EFEDEE"/>
<path d="M7 19.209H15V21.209H7V19.209Z" fill="#EFEDEE"/>
<path d="M7 23.209H15V25.209H7V23.209Z" fill="#EFEDEE"/>
<path d="M17 23.209H49V25.209H17V23.209Z" fill="#EFEDEE"/>
<path d="M17 19.209H49V21.209H17V19.209Z" fill="#EFEDEE"/>
</g>
<defs>
<clipPath id="clip0_122_7338">
<rect width="60" height="60" fill="white" transform="translate(0 0.208984)"/>
</clipPath>
</defs>
</svg>
