<svg width="20" height="20" viewBox="0 0 20 20" fill="none" xmlns="http://www.w3.org/2000/svg">
<path d="M0 16.2461C0 13.6611 3.454 13.0151 7.5 13.0151C11.567 13.0151 15 13.6841 15 16.2681C15 18.8521 11.545 19.5001 7.5 19.5001C3.434 19.5001 0 18.8291 0 16.2461ZM16.1 10.5881V9.4111H14.9C14.6635 9.40326 14.4393 9.3038 14.2747 9.13371C14.1102 8.96363 14.0182 8.73625 14.0182 8.4996C14.0182 8.26295 14.1102 8.03557 14.2747 7.86548C14.4393 7.6954 14.6635 7.59593 14.9 7.5881H16.1V6.4111C16.1 6.29291 16.1233 6.17588 16.1685 6.06668C16.2137 5.95749 16.28 5.85828 16.3636 5.7747C16.4472 5.69113 16.5464 5.62484 16.6556 5.57961C16.7648 5.53438 16.8818 5.5111 17 5.5111C17.1182 5.5111 17.2352 5.53438 17.3444 5.57961C17.4536 5.62484 17.5528 5.69113 17.6364 5.7747C17.72 5.85828 17.7863 5.95749 17.8315 6.06668C17.8767 6.17588 17.9 6.29291 17.9 6.4111V7.5881H19.1C19.3365 7.59593 19.5607 7.6954 19.7253 7.86548C19.8898 8.03557 19.9818 8.26295 19.9818 8.4996C19.9818 8.73625 19.8898 8.96363 19.7253 9.13371C19.5607 9.3038 19.3365 9.40326 19.1 9.4111H17.9V10.5881C17.9 10.8268 17.8052 11.0557 17.6364 11.2245C17.4676 11.3933 17.2387 11.4881 17 11.4881C16.7613 11.4881 16.5324 11.3933 16.3636 11.2245C16.1948 11.0557 16.1 10.8268 16.1 10.5881ZM2.537 5.5271C2.52766 4.86949 2.64913 4.21658 2.89433 3.60632C3.13953 2.99606 3.50357 2.44062 3.96531 1.97228C4.42705 1.50394 4.97726 1.13204 5.58398 0.878207C6.1907 0.62437 6.84182 0.493652 7.4995 0.493652C8.15718 0.493652 8.8083 0.62437 9.41502 0.878207C10.0217 1.13204 10.572 1.50394 11.0337 1.97228C11.4954 2.44062 11.8595 2.99606 12.1047 3.60632C12.3499 4.21658 12.4713 4.86949 12.462 5.5271C12.4713 6.18471 12.3499 6.83762 12.1047 7.44788C11.8595 8.05814 11.4954 8.61358 11.0337 9.08192C10.572 9.55026 10.0217 9.92215 9.41502 10.176C8.8083 10.4298 8.15718 10.5605 7.4995 10.5605C6.84182 10.5605 6.1907 10.4298 5.58398 10.176C4.97726 9.92215 4.42705 9.55026 3.96531 9.08192C3.50357 8.61358 3.13953 8.05814 2.89433 7.44788C2.64913 6.83762 2.52766 6.18471 2.537 5.5271Z" fill="white"/>
</svg>
