<?xml version="1.0" encoding="UTF-8"?>
<svg id="Layer_1" data-name="Layer 1" xmlns="http://www.w3.org/2000/svg" version="1.1" viewBox="0 0 58 58">
  <defs>
    <style>
      .cls-1 {
        fill: #eaf4ff;
      }

      .cls-1, .cls-2 {
        stroke-width: 0px;
      }

      .cls-2 {
        fill: #2566fa;
      }
    </style>
  </defs>
  <g>
    <circle class="cls-1" cx="29.27" cy="28.51" r="28.4"/>
    <g>
      <path class="cls-2" d="M18.08,20.24c-2.85,0-5.17-2.32-5.17-5.17s2.32-5.17,5.17-5.17,5.17,2.32,5.17,5.17-2.32,5.17-5.17,5.17ZM18.08,10.99c-2.25,0-4.07,1.83-4.07,4.07s1.83,4.07,4.07,4.07,4.07-1.83,4.07-4.07-1.83-4.07-4.07-4.07Z"/>
      <path class="cls-2" d="M26.58,31.3c-.46,0-.93-.13-1.34-.4l-9.38-6.07c-1.15-.74-1.47-2.28-.73-3.42.74-1.15,2.28-1.47,3.42-.73l9.38,6.07c.55.36.94.91,1.08,1.56s.02,1.31-.34,1.86c-.47.73-1.27,1.13-2.08,1.13ZM17.21,21.38c-.45,0-.89.22-1.16.63-.41.64-.23,1.49.41,1.9l9.38,6.07c.64.41,1.49.23,1.9-.41.2-.31.27-.68.19-1.03-.08-.36-.29-.67-.6-.87l-9.38-6.07c-.23-.15-.49-.22-.74-.22Z"/>
      <path class="cls-2" d="M21.9,43.89c-1.48,0-2.69-1.21-2.69-2.69v-4.66c0-.3.25-.55.55-.55s.55.25.55.55v4.66c0,.88.71,1.59,1.59,1.59s1.59-.71,1.59-1.59v-5.61c0-.42-.17-.82-.47-1.12-.21-.21-.21-.56,0-.78.21-.22.56-.22.78,0,.51.51.79,1.18.79,1.9v5.61c0,1.48-1.21,2.69-2.69,2.69Z"/>
      <path class="cls-2" d="M13.22,35.88c-.08,0-.17-.02-.25-.06-.27-.14-.38-.47-.24-.74l1.88-3.68c.14-.27.47-.38.74-.24.27.14.38.47.24.74l-1.88,3.68c-.1.19-.29.3-.49.3Z"/>
      <path class="cls-2" d="M16.1,39.05c-.13,0-.27-.05-.37-.15-.22-.21-.24-.55-.03-.78.03-.04.09-.1.16-.17.14-.15.53-.54.6-.66l1.21-2.45c.13-.27.46-.38.74-.25.27.14.38.46.25.74l-1.22,2.47c-.09.19-.33.45-.79.92-.06.06-.11.12-.14.15-.11.12-.26.18-.4.18Z"/>
      <path class="cls-2" d="M11.5,43.33c-.69,0-1.37-.26-1.89-.78-.51-.51-.79-1.18-.79-1.9s.28-1.39.79-1.9l3.19-3.77c.2-.23.54-.26.78-.06.23.2.26.54.07.77l-3.22,3.81c-.65.65-.65,1.66-.03,2.28s1.63.62,2.25,0l3.19-3.77c.2-.23.54-.26.78-.06.23.2.26.54.07.77l-3.22,3.81c-.54.55-1.25.82-1.95.82Z"/>
      <path class="cls-2" d="M23.27,34.51c-.14,0-.27-.05-.38-.15l-2.89-2.78c-.22-.21-.23-.56-.01-.78.21-.22.56-.23.78-.02l2.89,2.78c.22.21.23.56.01.78-.11.11-.25.17-.4.17Z"/>
      <path class="cls-2" d="M19.76,37.09c-.13,0-.26-.05-.37-.14l-2.52-2.3c-.22-.2-.24-.55-.04-.78s.55-.24.78-.04l2.52,2.3c.22.2.24.55.04.78-.11.12-.26.18-.41.18Z"/>
      <path class="cls-2" d="M20.32,31.66c-.29,0-.54-.23-.55-.53l-.17-4.05c-.01-.3.22-.56.53-.57.31,0,.56.22.57.53l.17,4.05c.01.3-.22.56-.53.57,0,0-.02,0-.02,0Z"/>
      <path class="cls-2" d="M15.11,32.15c-.28,0-.52-.22-.55-.5l-.7-8.13c-.09-1.86,1.34-3.42,3.18-3.51,1.4-.07,2.67.6,3.22,1.69.14.27.03.6-.24.74-.27.14-.6.03-.74-.24-.36-.71-1.22-1.13-2.19-1.09-1.23.06-2.19,1.11-2.13,2.34l.7,8.11c.03.3-.2.57-.5.6-.02,0-.03,0-.05,0Z"/>
      <path class="cls-2" d="M30.1,41.53h-2.91v-9.44l-.75-1.04c-.18-.25-.12-.59.12-.77s.59-.12.77.12l.96,1.33v8.7h.71v-9.12l-.93-1.08c-.2-.23-.17-.58.06-.78.23-.2.58-.17.78.06l1.19,1.39v10.63Z"/>
      <path class="cls-2" d="M48.68,43.79h-22c-.57,0-1.03-.46-1.03-1.03v-1.29c0-.57.46-1.03,1.03-1.03h22c.57,0,1.03.46,1.03,1.03v1.29c0,.57-.46,1.03-1.03,1.03ZM26.75,42.69h21.87v-1.16h-21.87v1.16Z"/>
      <path class="cls-2" d="M30.31,47.14c-1.2,0-2.17-.97-2.17-2.17s.97-2.17,2.17-2.17,2.17.97,2.17,2.17-.97,2.17-2.17,2.17ZM30.31,43.89c-.59,0-1.07.48-1.07,1.07s.48,1.07,1.07,1.07,1.07-.48,1.07-1.07-.48-1.07-1.07-1.07Z"/>
      <path class="cls-2" d="M45.61,47.14c-1.2,0-2.17-.97-2.17-2.17s.97-2.17,2.17-2.17,2.17.97,2.17,2.17-.97,2.17-2.17,2.17ZM45.61,43.89c-.59,0-1.07.48-1.07,1.07s.48,1.07,1.07,1.07,1.07-.48,1.07-1.07-.48-1.07-1.07-1.07Z"/>
      <path class="cls-2" d="M46.54,41.49h-15.38c-.68,0-1.24-.56-1.24-1.24v-15.38c0-.68.56-1.24,1.24-1.24h15.38c.68,0,1.24.56,1.24,1.24v15.38c0,.68-.56,1.24-1.24,1.24ZM31.17,24.74c-.08,0-.14.06-.14.14v15.38c0,.08.06.14.14.14h15.38c.08,0,.14-.06.14-.14v-15.38c0-.08-.06-.14-.14-.14h-15.38Z"/>
      <path class="cls-2" d="M38.87,35.77l-1.82-1.81c-.48-.48-.75-1.12-.76-1.8,0-.69.26-1.33.75-1.82.48-.49,1.13-.76,1.81-.76h0c.68,0,1.32.26,1.81.75.48.48.75,1.12.76,1.8,0,.69-.26,1.33-.75,1.82l-1.81,1.82ZM38.86,30.68h0c-.39,0-.76.15-1.03.43-.28.28-.43.65-.43,1.04,0,.39.16.75.43,1.03l1.04,1.03,1.03-1.04c.28-.28.43-.65.43-1.04,0-.39-.16-.75-.43-1.03-.28-.28-.64-.43-1.03-.43Z"/>
    </g>
  </g>
  <g>
    <circle class="cls-1" cx="29.27" cy="28.51" r="28.4"/>
    <g>
      <path class="cls-2" d="M35.52,19.41c-2.78,0-5.04-2.26-5.04-5.04s2.26-5.04,5.04-5.04,5.04,2.26,5.04,5.04-2.26,5.04-5.04,5.04ZM35.52,10.55c-2.11,0-3.83,1.72-3.83,3.83s1.72,3.83,3.83,3.83,3.83-1.72,3.83-3.83-1.72-3.83-3.83-3.83Z"/>
      <path class="cls-2" d="M31.64,32.37c-.52,0-1.04-.16-1.48-.5h0c-1.08-.82-1.29-2.36-.47-3.43l6.47-8.54c.82-1.08,2.36-1.29,3.43-.47.52.4.86.97.95,1.62s-.08,1.29-.47,1.82l-6.47,8.54c-.48.64-1.22.97-1.96.97ZM30.89,30.9c.54.41,1.32.31,1.73-.24l6.47-8.54c.2-.26.28-.59.24-.92-.05-.33-.22-.62-.48-.82-.54-.41-1.32-.3-1.73.24l-6.47,8.54c-.2.26-.28.59-.24.92.05.33.22.62.48.82h0Z"/>
      <path class="cls-2" d="M35.76,44.97c-.85,0-1.62-.35-2.09-.73-.29-.24-.46-.59-.46-.97v-7.8c0-.37.16-.72.44-.96l3.64-3.12-1.42-4.21c-.11-.32.06-.66.38-.77.32-.11.66.06.77.38l1.43,4.16c.17.49.02,1.03-.37,1.36l-3.64,3.12-.02,7.83s1.32,1.06,2.57.02v-5.79c.01-.38.18-.73.47-.97l1.77-1.72c.41-.35.93-.41,1.37-.2.45.21.72.65.72,1.14v7.57c.42.35,1.31.76,2.74-.05l.02-11.44-1.84-5.83c-.53-1.68-1.06-3.35-1.58-5.03-.12-.38-.52-.86-.94-1.1-.63-.37-1.41-.06-1.95.26-.29.17-.66.08-.83-.21-.17-.29-.07-.66.21-.83,1.16-.68,2.29-.78,3.17-.26.56.33,1.24,1.01,1.49,1.78.52,1.68,1.05,3.35,1.58,5.03l1.85,5.84c.04.13.05.24.05.36v11.4c0,.45-.24.87-.63,1.09-2.12,1.2-3.56.38-4.08-.02-.3-.24-.48-.6-.48-.99v-7.57l-.05-.06-1.85,1.81v5.75c0,.38-.16.73-.45.97-.65.54-1.35.74-2.01.74Z"/>
      <path class="cls-2" d="M29.35,40.63h-12.88c-.83,0-1.51-.68-1.51-1.51v-.42c0-.83.68-1.51,1.51-1.51h12.88c.83,0,1.51.68,1.51,1.51v.42c0,.83-.68,1.51-1.51,1.51ZM16.47,38.39c-.17,0-.3.13-.3.3v.42c0,.16.13.3.3.3h12.88c.17,0,.3-.13.3-.3v-.42c0-.16-.13-.3-.3-.3h-12.88Z"/>
      <path class="cls-2" d="M44.18,47.7h-27.82c-.77,0-1.4-.63-1.4-1.41v-.64c0-.77.63-1.41,1.4-1.41h27.82c.77,0,1.4.63,1.4,1.41v.64c0,.77-.63,1.41-1.4,1.41ZM16.36,45.46c-.11,0-.19.09-.19.19v.64c0,.11.09.19.19.19h27.82c.11,0,.19-.09.19-.19v-.64c0-.11-.09-.19-.19-.19h-27.82Z"/>
      <path class="cls-2" d="M29.37,45.29c-.34,0-.61-.27-.61-.61v-4.67c0-.33.27-.61.61-.61s.61.27.61.61v4.67c0,.33-.27.61-.61.61Z"/>
      <path class="cls-2" d="M17.17,45.29c-.34,0-.61-.27-.61-.61v-4.51c0-.33.27-.61.61-.61s.61.27.61.61v4.51c0,.33-.27.61-.61.61Z"/>
      <path class="cls-2" d="M14.73,37.21c-.17,0-.33-.03-.49-.1-.36-.15-.63-.45-.74-.83l-.49-1.7c-.19-.67.19-1.38.85-1.58l12.44-3.87c.67-.21,1.39.17,1.6.84l.88,2.75c.18.57-.06,1.21-.59,1.5l-1.38.79c-.23.13-.5.19-.77.16l-2.75-.29s-.04,0-.06.02l-.71.72c-.3.31-.74.44-1.16.36l-1.68-.33-1.51.8c-.17.09-.36.14-.54.15l-1.63.08-.65.35c-.19.11-.4.16-.62.16ZM26.66,30.29l-12.44,3.87s-.06.05-.05.09l.49,1.7s.02.04.04.05c.02,0,.04,0,.06,0l.62-.34c.17-.09.36-.15.55-.16l1.63-.08,1.5-.8c.26-.14.56-.18.85-.13l1.68.33s.05,0,.06-.02l.71-.72c.28-.28.66-.42,1.05-.38l2.75.29,1.42-.8s.04-.05.03-.08l-.88-2.75s-.05-.06-.09-.05h0Z"/>
      <path class="cls-2" d="M29.37,34.87c-.7,0-1.35-.44-1.58-1.14l-1.36-4.11c-.29-.87.18-1.81,1.05-2.1l2.29-.76c.93-.31,1.47.13,1.71.42.21.26.18.64-.08.85-.26.21-.64.18-.85-.08-.05-.06-.11-.13-.39-.04l-2.28.76c-.23.08-.36.33-.28.56l1.36,4.11c.08.23.33.36.56.28l2.28-.76c.15-.05.37-.63.26-.94-.11-.32.07-.66.39-.77.32-.11.66.07.77.39.13.39.11.91-.05,1.38-.19.55-.55.95-.98,1.09l-2.28.76c-.17.06-.35.08-.52.08Z"/>
    </g>
  </g>
  <g>
    <circle class="cls-1" cx="29.27" cy="28.51" r="28.4"/>
    <g>
      <g>
        <path class="cls-2" d="M22.84,32.44c-3.93,0-7.12-3.2-7.12-7.12h1.21c0,3.26,2.65,5.91,5.91,5.91s5.91-2.65,5.91-5.91h1.21c0,3.93-3.2,7.12-7.12,7.12Z"/>
        <path class="cls-2" d="M23.07,36.28c-2.06,0-3.74-1.68-3.74-3.73h1.21c0,1.39,1.13,2.52,2.52,2.52s2.52-1.13,2.52-2.52h1.21c0,2.06-1.68,3.73-3.73,3.73Z"/>
        <path class="cls-2" d="M29.7,26.06h-13.72c-.85,0-1.54-.69-1.54-1.54v-1.81c0-.85.69-1.54,1.54-1.54h13.72c.85,0,1.54.69,1.54,1.54v1.81c0,.85-.69,1.54-1.54,1.54ZM15.98,22.38c-.18,0-.33.15-.33.33v1.81c0,.18.15.33.33.33h13.72c.18,0,.33-.15.33-.33v-1.81c0-.18-.15-.33-.33-.33h-13.72Z"/>
        <g>
          <path class="cls-2" d="M29.76,21.77h-1.21c0-2.37-1.41-4.5-3.58-5.44l.48-1.12c2.62,1.12,4.32,3.7,4.32,6.55Z"/>
          <path class="cls-2" d="M16.73,21.77h-1.21c0-3.02,1.92-5.73,4.77-6.73l.4,1.14c-2.37.83-3.95,3.07-3.95,5.58Z"/>
        </g>
        <path class="cls-2" d="M25.08,17.82c-.34,0-.61-.27-.61-.61v-1.77c0-.91-.74-1.65-1.65-1.65s-1.65.74-1.65,1.65v1.77c0,.33-.27.61-.61.61s-.61-.27-.61-.61v-1.77c0-1.58,1.28-2.86,2.86-2.86s2.86,1.28,2.86,2.86v1.77c0,.33-.27.61-.61.61Z"/>
        <path class="cls-2" d="M19.04,20.45c-.34,0-.61-.27-.61-.61v-3.12c0-.33.27-.61.61-.61s.61.27.61.61v3.12c0,.33-.27.61-.61.61Z"/>
        <path class="cls-2" d="M26.73,20.45c-.34,0-.61-.27-.61-.61v-3.12c0-.33.27-.61.61-.61s.61.27.61.61v3.12c0,.33-.27.61-.61.61Z"/>
        <path class="cls-2" d="M36.11,45.17H11.04s-.04,0-.06,0c-.34,0-.61-.27-.61-.61,0-7.09,5.77-12.87,12.87-12.87s12.87,5.77,12.87,12.87v.61ZM11.6,43.95h23.27c-.32-6.14-5.41-11.04-11.64-11.04s-11.32,4.9-11.64,11.04Z"/>
        <rect class="cls-2" x="17.66" y="33.35" width="1.21" height="11.32"/>
      </g>
      <rect class="cls-2" x="15.51" y="34.39" width="1.21" height="10.33"/>
      <rect class="cls-2" x="27.68" y="33.35" width="1.21" height="11.32"/>
      <rect class="cls-2" x="29.83" y="34.39" width="1.21" height="10.33"/>
      <path class="cls-2" d="M34.13,33.96c-.1,0-.2-.02-.29-.08-.27-.15-.38-.47-.27-.75l3.41-8.63h-3.34c-.23,0-.45-.14-.55-.35-.1-.21-.07-.46.08-.64l9.55-11.59c.19-.23.52-.29.77-.14.26.15.37.46.26.74l-2.42,6.47h2.8c.23,0,.44.13.54.33s.08.45-.05.63l-10.01,13.76c-.12.16-.3.25-.49.25ZM34.92,23.29h2.95c.2,0,.39.1.5.27.11.17.14.38.06.56l-1.98,5.01,6.49-8.92h-2.48c-.2,0-.39-.1-.5-.26s-.14-.37-.07-.56l1.45-3.89-6.43,7.8Z"/>
      <path class="cls-2" d="M41.47,40.61c-.28,0-.57-.05-.84-.16l-.96-.38c-1.23-.49-1.81-1.92-1.31-3.2l1.46-3.7c.06-.15.18-.27.32-.33.15-.06.32-.07.46,0l4.28,1.69c.15.06.27.18.33.32s.07.31,0,.46l-1.46,3.7c-.39.99-1.33,1.6-2.3,1.6ZM40.72,34.19l-1.24,3.13c-.26.66.02,1.39.62,1.63l.96.38c.6.24,1.31-.1,1.57-.76l1.24-3.13-3.15-1.25Z"/>
      <g>
        <path class="cls-2" d="M42.07,34.72l-1.13-.45,1.5-3.8-.95-1.98c-.1-.2-.07-.44.05-.62l2.62-3.64c.16-.23.46-.31.72-.21l2.27.9-.45,1.13-1.83-.73-2.14,2.96.91,1.9c.07.15.08.33.02.48l-1.6,4.04Z"/>
        <path class="cls-2" d="M43.65,35.34l-1.13-.45,1.6-4.04c.06-.16.19-.28.34-.34l1.96-.76.47-3.62-1.83-.73.45-1.13,2.27.9c.26.1.41.37.38.64l-.58,4.45c-.03.22-.17.41-.38.49l-2.05.8-1.5,3.8Z"/>
      </g>
    </g>
  </g>
</svg>