<?xml version="1.0" encoding="UTF-8"?>
<svg id="Layer_1" data-name="Layer 1" xmlns="http://www.w3.org/2000/svg" xmlns:xlink="http://www.w3.org/1999/xlink" version="1.1" viewBox="0 0 58 58">
  <defs>
    <style>
      .cls-1 {
        clip-path: url(#clippath);
      }

      .cls-2, .cls-3, .cls-4 {
        fill: none;
      }

      .cls-2, .cls-5, .cls-6 {
        stroke-width: 0px;
      }

      .cls-3 {
        stroke-linejoin: round;
      }

      .cls-3, .cls-4 {
        stroke: #2566fa;
        stroke-width: 1.21px;
      }

      .cls-5 {
        fill: #eaf4ff;
      }

      .cls-6 {
        fill: #2566fa;
      }

      .cls-4 {
        stroke-miterlimit: 10;
      }
    </style>
    <clipPath id="clippath">
      <circle class="cls-2" cx="29.27" cy="28.51" r="28.4"/>
    </clipPath>
  </defs>
  <circle class="cls-5" cx="29.27" cy="28.51" r="28.4"/>
  <g class="cls-1">
    <g>
      <path class="cls-6" d="M14.41,21.9c-2.51,0-4.55-2.04-4.55-4.55s2.04-4.55,4.55-4.55,4.55,2.04,4.55,4.55-2.04,4.55-4.55,4.55ZM14.41,13.91c-1.9,0-3.44,1.54-3.44,3.44s1.55,3.44,3.44,3.44,3.44-1.54,3.44-3.44-1.54-3.44-3.44-3.44Z"/>
      <path class="cls-6" d="M15.65,27.44c-.63,0-1.26-.27-1.7-.79-.38-.45-.56-1.03-.51-1.62s.33-1.12.78-1.5l7.39-6.21c.93-.78,2.33-.66,3.12.27.79.93.66,2.33-.27,3.12l-7.39,6.21c-.41.35-.92.52-1.42.52ZM23.04,17.91c-.25,0-.51.09-.71.26l-7.39,6.21c-.23.19-.37.46-.39.75s.07.58.26.81h0c.19.23.46.37.75.39.3.02.58-.07.81-.26l7.39-6.21c.47-.39.53-1.1.14-1.57-.22-.26-.53-.4-.85-.4Z"/>
      <path class="cls-6" d="M20.64,25.34c-.16,0-.31-.07-.42-.2-.2-.23-.17-.58.07-.78l6.27-5.26c.47-.39.53-1.1.14-1.57-.19-.23-.46-.37-.75-.39-.3-.03-.58.07-.81.26-.23.2-.58.17-.78-.07s-.17-.58.07-.78c.45-.38,1.03-.56,1.62-.51.59.05,1.12.33,1.5.78.79.93.66,2.33-.27,3.12l-6.27,5.26c-.1.09-.23.13-.35.13Z"/>
      <path class="cls-6" d="M12.84,48.65c-.37,0-.75-.08-1.1-.23-.67-.29-1.18-.83-1.44-1.51-.26-.68-.25-1.42.05-2.09l4.17-9.47c.12-.28.45-.4.73-.28.28.12.41.45.28.73l-4.17,9.47c-.18.4-.18.84-.03,1.25s.46.72.86.9c.4.18.84.19,1.25.03.41-.16.72-.46.9-.86l4.4-9.98c.12-.28.45-.4.73-.28s.41.45.28.73l-4.4,9.98c-.29.67-.83,1.18-1.51,1.44-.32.12-.66.19-.99.19Z"/>
      <path class="cls-6" d="M23.26,48.86c-.18,0-.37-.02-.55-.06-1.47-.31-2.43-1.75-2.12-3.23l1.04-5.25c.06-.3.35-.49.65-.43.3.06.49.35.43.65l-1.04,5.25c-.18.88.38,1.75,1.26,1.93.88.18,1.74-.39,1.92-1.26l1.31-6.37c.06-.3.35-.49.65-.43.3.06.49.35.43.65l-1.31,6.37c-.27,1.29-1.41,2.18-2.67,2.18Z"/>
      <path class="cls-6" d="M26.69,40.85s-.06,0-.09,0c-.3-.05-.51-.33-.46-.63.05-.34.03-.45-.29-.84l-4.94-6c-.19-.23-.16-.58.08-.78.23-.19.58-.16.78.07l4.94,6c.44.52.65.95.53,1.71-.04.27-.28.47-.54.47Z"/>
      <path class="cls-6" d="M22.17,40.98c-.16,0-.32-.07-.43-.21l-2.91-3.61c-.19-.24-.15-.58.08-.78.24-.19.58-.15.78.08l2.91,3.61c.19.24.15.58-.08.78-.1.08-.22.12-.35.12Z"/>
      <path class="cls-6" d="M21.29,33.49c-.28,0-.52-.22-.55-.5l-.8-9.37c-.03-.3.2-.57.5-.6.29-.03.57.2.6.5l.8,9.37c.03.3-.2.57-.5.6-.02,0-.03,0-.05,0Z"/>
      <path class="cls-6" d="M15.01,36.12c-.28,0-.52-.21-.55-.5l-1.02-10.39c-.03-.3.19-.57.49-.6.3-.03.57.19.6.49l1.02,10.39c.03.3-.19.57-.49.6-.02,0-.04,0-.05,0Z"/>
      <path class="cls-6" d="M23.51,20.87c.03,1.5,0,7.03-.02,10.79,0,.35.28.64.63.64h0c.35,0,.63-.28.64-.63.07-10.69.04-11.34-.07-11.55-.23.39-.63.69-1.18.74Z"/>
      <rect class="cls-3" x="35.84" y="15.5" width="11.29" height="13.89" rx=".77" ry=".77"/>
      <path class="cls-6" d="M41.49,24.62l-1.28-1.27c-.34-.34-.53-.78-.53-1.26,0-.48.18-.93.52-1.28.34-.34.79-.53,1.27-.53h0c.48,0,.93.19,1.27.52.34.34.53.79.53,1.26,0,.48-.18.93-.52,1.28l-1.27,1.28ZM41.48,21.05h0c-.27,0-.53.11-.73.3-.19.2-.3.45-.3.73,0,.27.11.53.3.72l.73.73.72-.73c.19-.2.3-.45.3-.73,0-.27-.11-.53-.3-.72-.19-.19-.45-.3-.72-.3Z"/>
      <polyline class="cls-4" points="24.15 17.91 41.48 -10.87 41.48 15.4"/>
    </g>
  </g>
</svg>