<svg width="58" height="58" viewBox="0 0 58 58" fill="none" xmlns="http://www.w3.org/2000/svg">
<circle cx="29" cy="29" r="29" fill="#EBF5FF"/>
<path fill-rule="evenodd" clip-rule="evenodd" d="M25.5626 23.7501C25.5626 21.8516 27.1016 20.3126 29.0001 20.3126C30.8985 20.3126 32.4376 21.8516 32.4376 23.7501C32.4376 25.6485 30.8985 27.1876 29.0001 27.1876C27.1016 27.1876 25.5626 25.6485 25.5626 23.7501ZM29.0001 22.1876C28.1371 22.1876 27.4376 22.8871 27.4376 23.7501C27.4376 24.613 28.1371 25.3126 29.0001 25.3126C29.863 25.3126 30.5626 24.613 30.5626 23.7501C30.5626 22.8871 29.863 22.1876 29.0001 22.1876Z" fill="#0A57FF"/>
<path d="M32.4376 33.3741C32.9553 33.3741 33.3751 32.9544 33.3751 32.4366C33.3751 31.9188 32.9553 31.4991 32.4376 31.4991C31.9198 31.4991 31.5001 31.9188 31.5001 32.4366C31.5001 32.9544 31.9198 33.3741 32.4376 33.3741Z" fill="#0A57FF"/>
<path fill-rule="evenodd" clip-rule="evenodd" d="M22.6726 16.5C22.0132 16.5 21.4673 17.0121 21.4251 17.67L20.3354 34.67C20.2892 35.3904 20.861 36 21.5828 36H36.4174C37.1392 36 37.711 35.3904 37.6649 34.67L36.5751 17.67C36.5329 17.0121 35.987 16.5 35.3277 16.5H22.6726ZM23.2588 18.375L22.5977 28.6875H35.4025L34.7415 18.375H23.2588ZM22.2492 34.125L22.4775 30.5625H35.5227L35.7511 34.125H22.2492Z" fill="#0A57FF"/>
<path d="M33.8328 37.8751C33.9392 37.6913 34.0001 37.4778 34.0001 37.2501V36.0001H24.0001V37.2501C24.0001 37.4778 24.0609 37.6913 24.1673 37.8751C24.3834 38.2487 24.7874 38.5001 25.2501 38.5001H25.5709C25.5654 38.5411 25.5626 38.5829 25.5626 38.6254V40.5625C25.5626 41.0803 25.9823 41.5 26.5001 41.5C27.0178 41.5 27.4376 41.0803 27.4376 40.5625V38.6254C27.4376 38.5829 27.4347 38.5411 27.4293 38.5001H30.5813C30.569 38.5607 30.5626 38.6233 30.5626 38.6875V40.5625C30.5626 41.0803 30.9823 41.5 31.5001 41.5C32.0178 41.5 32.4376 41.0803 32.4376 40.5625V38.6875C32.4376 38.6233 32.4311 38.5607 32.4188 38.5001H32.7501C33.2127 38.5001 33.6167 38.2487 33.8328 37.8751Z" fill="#0A57FF"/>
</svg>
